<?xml version="1.0" encoding="UTF-8" standalone="no"?>
<svg
   xmlns:dc="http://purl.org/dc/elements/1.1/"
   xmlns:cc="http://creativecommons.org/ns#"
   xmlns:rdf="http://www.w3.org/1999/02/22-rdf-syntax-ns#"
   xmlns:svg="http://www.w3.org/2000/svg"
   xmlns="http://www.w3.org/2000/svg"
   id="svg8"
   version="1.1"
   viewBox="0 0 15.272671 6.568603"
   height="6.568603"
   width="15.272671">
  <defs
     id="defs2" />
  <metadata
     id="metadata5">
    <rdf:RDF>
      <cc:Work
         rdf:about="">
        <dc:format>image/svg+xml</dc:format>
        <dc:type
           rdf:resource="http://purl.org/dc/dcmitype/StillImage" />
        <dc:title></dc:title>
      </cc:Work>
    </rdf:RDF>
  </metadata>
  <g
     transform="translate(-71.478222,-134.92455)"
     id="layer1">
    <g
       transform="matrix(0.26458333,0,0,0.26458333,56.849566,124.1743)"
       id="layer1-2">
      <path
         d="m 108.91602,44.705083 0.0566,1 0.0605,0.746094 -0.0234,0.169922 0.17187,0.15625 -0.0332,0.08789 0.11718,0.07031 0.002,-0.0059 0.041,-0.03906 0.0488,-0.02539 0.1211,-0.214843 0.1621,-0.13086 0.15626,-0.146484 -0.0352,-0.0293 -0.0312,-0.01563 0.0898,-0.09375 0.11719,-0.07031 0.0977,-0.01953 -0.01,0.03711 v 0.03125 l 0.0488,-0.0098 0.0527,-0.02344 0.0332,0.03125 0.0312,0.01758 0.0156,-0.0332 -0.01,-0.0625 0.008,-0.04297 0.0234,0.01172 0.01,0.03711 0.0312,0.0098 0.0312,-0.103516 0.0469,-0.03906 0.0156,0.04492 0.0137,0.06836 0.0332,-0.0059 0.0332,-0.0957 0.0137,0.01953 0.0215,0.06641 0.041,-0.0078 0.0449,-0.05078 0.0899,-0.04687 0.11914,0.01563 0.0898,-0.05078 0.0684,-0.06055 0.004,-0.07422 0.10937,-0.175781 -0.006,-0.08594 0.11328,-0.05078 0.0469,-0.06445 0.0371,-0.02148 -0.002,0.06055 -0.0293,0.05664 0.0176,0.0078 0.041,-0.0078 0.0254,0.0098 -0.084,0.06055 -0.0176,0.04297 0.0898,-0.002 0.11133,0.03125 0.0391,0.03906 0.0391,0.01172 0.0195,-0.04492 -0.008,-0.07617 0.043,-0.06445 0.0273,-0.0625 0.0332,0.03906 0.0449,0.02344 0.0566,-0.0293 0.0391,-0.0332 0.0312,-0.0078 h 0.0488 l 0.0449,0.01367 0.0352,0.01172 0.0234,0.05078 0.0371,0.05469 0.043,-0.01563 0.0293,-0.01953 0.0215,-0.04492 0.0566,0.01172 0.0664,-0.123047 0.0508,-0.0098 0.0625,0.01953 0.0742,0.0039 0.0527,-0.01367 0.043,-0.06836 0.0996,-0.01172 0.0937,-0.04102 0.17187,0.02148 0.20508,-0.152344 -0.004,-0.02148 -0.0234,-0.01758 -0.0937,-0.01758 -0.006,-0.05859 0.0332,-0.04492 -0.0215,-0.09961 -0.0293,-0.05078 0.006,-0.03125 -0.0469,-0.01172 -0.041,-0.01172 -0.0371,-0.0078 -0.0215,0.01367 -0.0195,0.01953 -0.0234,0.01367 -0.0527,-0.01953 -0.0332,-0.03711 -0.0527,-0.03711 -0.0195,-0.02734 0.01,-0.0332 0.0234,-0.03125 0.0117,-0.03906 -0.0254,-0.04297 -0.0234,-0.02344 -0.0176,-0.0293 0.006,-0.02734 0.0332,-0.01172 0.0312,-0.01563 0.01,-0.03711 -0.0195,-0.03711 -0.0527,-0.01367 -0.0449,0.0039 -0.0644,-0.0078 -0.0625,-0.02344 -0.041,-0.02734 -0.0312,-0.01367 h -0.0254 l -0.0293,-0.01563 -0.0176,-0.02734 0.002,-0.04102 0.008,-0.02734 0.0176,-0.02148 0.002,-0.02539 -0.008,-0.01563 v -0.01367 l 0.004,-0.01953 0.01,-0.03516 -0.0176,-0.02539 v -0.08984 l -0.004,-0.166015 -0.004,-0.128907 -0.004,-0.160156 -0.002,-0.117187 -0.002,-0.164063 -0.002,-0.15625 -0.004,-0.146484 -0.12891,-0.08594 -0.16211,-0.107422 -0.13672,-0.07031 -0.0762,-0.0078 -0.0469,0.0078 -0.0195,0.0293 -0.10352,0.03125 -0.18945,0.03125 -0.1582,0.05078 h -0.0586 l -0.0508,-0.0078 -0.0664,-0.02539 -0.0449,-0.03711 -0.0156,-0.06445 0.0137,-0.08984 -0.0957,-0.01758 -0.0957,-0.01758 -0.0605,0.06055 -0.0567,0.05078 -0.11132,0.113281 -0.16016,0.158203 -0.0879,0.08594 -0.15234,0.150391 -0.13672,0.134766 -0.0293,0.138672 -0.0293,0.128906 -0.11328,0.09961 -0.0684,0.08984 -0.0312,0.101562 -0.0254,0.09375 -0.002,0.07617 0.0195,0.04102 -0.01,0.0332 -0.0352,0.03906 -0.0762,0.06445 -0.0137,0.06445 -0.0449,0.03125 -0.1289,0.0625 -0.10547,0.09375 -0.006,0.05273 0.0156,0.04297 0.002,0.02734 -0.0215,0.01953 -0.043,-0.002 -0.0449,0.0059 -0.0391,0.03906 v 0.05469 l -0.0273,0.03906 -0.0332,0.0098 -0.0273,-0.0293 -0.0352,-0.04102 -0.0391,-0.0059 -0.0606,0.0293 -0.0234,0.01367 z m 2.78515,0.837891 -0.0488,0.02734 -0.0605,0.06641 -0.004,0.06836 0.0254,0.01758 0.0723,0.02734 0.006,-0.01953 v -0.05273 l 0.0644,0.0098 0.0566,-0.01953 -0.004,-0.03125 -0.0469,-0.07422 -0.0605,-0.01953 z m -0.3789,0.201172 -0.0137,0.0078 -0.0117,0.01563 0.002,0.04883 0.041,0.0078 0.0371,-0.01953 -0.0332,-0.04688 -0.0215,-0.01367 z"
         id="path7875" />
      <path
         id="path7941"
         d="m 108.875,48.486333 -0.008,-0.15039 -0.0469,-0.02344 -0.0234,0.04687 0.0156,0.125 0.0176,0.02734 0.0449,-0.02539 z m -0.0977,-0.201172 -0.11328,-0.09375 -0.004,-0.109375 h -0.043 v -0.105469 l -0.14844,-0.01172 -0.26953,0.02344 0.008,0.421875 -0.004,0.160156 -0.0586,0.01563 v 0.07812 l 0.0859,0.0059 0.24609,-0.04883 0.0801,-0.07422 0.0156,-0.179687 0.0644,-0.07031 -0.0273,-0.0918 0.0312,0.0098 0.0293,0.02344 0.0195,0.04102 0.0391,0.03906 0.0488,-0.0332 z m -0.01,0.06055 -0.0312,0.01563 -0.0156,0.01953 -0.0273,0.05859 -0.0117,0.05469 -0.0273,0.03711 0.0547,0.0039 0.0508,-0.02734 0.008,-0.162109 z m -0.13086,0.08203 -0.0215,0.002 -0.0176,0.05469 0.01,0.04883 0.0273,-0.01758 0.0117,-0.05859 -0.01,-0.0293 z" />
      <path
         id="path7935"
         d="m 109.10547,47.105474 -0.0898,0.01172 -0.0703,0.0625 h -0.10547 l -0.0273,0.07031 -0.10547,0.04687 -0.46094,-0.01172 -0.70703,-0.01953 -0.40625,-0.01563 h -0.39843 l -0.14454,0.351562 -0.0898,0.289063 0.008,0.05469 0.33203,0.0039 0.33204,0.0078 0.0117,0.04297 0.0508,-0.01172 0.0156,-0.02734 0.48828,0.0078 0.46484,0.0039 -0.004,0.01563 0.26953,-0.02344 0.14844,0.01172 v 0.105469 h 0.043 l 0.004,0.109375 0.11328,0.09375 0.0449,-0.0293 0.0293,-0.002 -0.0312,0.05859 0.0469,0.02344 0.008,0.15039 0.0449,-0.02344 0.10547,-0.01172 0.27344,-0.166016 0.0352,0.0039 0.0117,0.103516 -0.0137,0.04883 0.0117,0.02539 0.17578,-0.04883 0.0762,-0.04492 0.34375,-0.05078 0.0742,-0.0059 0.0371,0.0059 0.0156,-0.0332 -0.008,-0.09766 -0.0371,-0.152344 -0.13086,-0.117187 -0.0508,-0.01953 -0.043,-0.0039 -0.0371,0.0098 0.004,0.02148 0.041,0.03516 0.0215,-0.02734 0.0644,0.0332 0.0195,0.04883 0.084,0.109375 0.004,0.04492 -0.13282,0.05664 -0.16015,0.04102 -0.13281,-0.0293 -0.0879,-0.04492 -0.0332,-0.136719 -0.10742,-0.04687 0.0117,-0.03516 0.0273,-0.01758 -0.12109,-0.189454 -0.0801,-0.03711 -0.17773,-0.03516 -0.0508,-0.0293 0.11719,-0.101563 0.0586,-0.06445 0.041,-0.05664 0.0781,-0.01758 0.0918,-0.04688 0.0469,-0.0059 0.01,-0.02734 -0.0195,-0.02148 -0.0312,-0.002 -0.043,0.0098 -0.0391,-0.0059 -0.0449,-0.05078 -0.0195,-0.05273 -0.0273,-0.05078 0.0195,-0.04687 -0.0859,-0.02344 z m 0.2793,1.4375 -0.0586,0.0078 -0.0859,0.07617 -0.0683,0.01367 0.043,0.0332 0.27539,-0.05078 -0.0156,-0.03711 -0.0898,-0.04297 z m 0.57421,0.06055 -0.004,0.02344 -0.0176,0.04492 -0.0254,0.0098 -0.14453,0.0332 0.17773,0.03711 0.0762,-0.01758 -0.008,-0.0332 -0.0547,-0.09766 z" />
      <path
         d="m 107.53906,47.26563 -0.0918,-0.09766 0.11914,-0.289063 -0.0117,-0.109375 0.0742,-0.34375 0.082,-0.167969 0.0898,-0.03125 0.14844,-0.3125 -0.0156,-0.21875 0.23047,-0.04297 0.0664,-0.05469 0.17187,-0.09766 0.043,-0.09766 -0.0859,-0.15625 0.14843,-0.15625 -0.0254,-0.09766 h -0.41601 -0.41602 l -0.41601,0.002 h -0.41602 -0.16797 l 0.0176,0.07617 -0.0547,0.08594 0.0391,0.05469 -0.0469,0.199218 0.0859,0.07031 -0.0156,0.242187 -0.10937,0.226563 0.0586,0.28125 -0.0625,0.191406 0.11328,-0.05469 0.0742,0.101562 -0.004,0.265625 -0.0391,0.414063 0.0273,0.101562 h 0.39843 l 0.40625,0.01563 z"
         id="path7950" />
      <path
         d="m 108.91602,44.705083 -0.0508,0.03125 -0.0664,0.0039 -0.125,-0.0293 -0.0937,0.08984 -0.0977,0.191407 0.0254,0.09766 -0.14843,0.15625 0.0859,0.15625 -0.043,0.09766 -0.17187,0.09766 -0.0664,0.05469 -0.23047,0.04297 0.0156,0.21875 -0.14844,0.3125 -0.0898,0.03125 -0.082,0.167969 -0.0742,0.34375 0.0117,0.109375 -0.11914,0.289063 0.0918,0.09766 0.70703,0.01953 0.46094,0.01172 0.10547,-0.04687 0.0273,-0.07031 h 0.10547 l 0.0703,-0.0625 0.0898,-0.01172 0.0859,0.02344 0.0312,-0.07031 0.043,-0.123047 -0.11718,-0.07031 0.0332,-0.08789 -0.17187,-0.15625 0.0234,-0.169922 -0.0605,-0.746094 -0.0566,-1 z"
         id="path7929" />
      <path
         d="m 104.59961,50.167974 -0.0996,-0.01563 -0.17188,0.02344 -0.11914,0.103516 0.0332,0.423828 0.0273,0.4375 0.0352,0.402344 0.6582,0.0059 0.002,-0.05273 -0.0371,-0.07422 -0.0391,-0.02148 -0.0762,0.0078 0.0586,-0.04102 0.0449,-0.08984 -0.006,-0.05469 -0.0957,-0.04102 -0.125,-0.148438 -0.082,-0.126953 -0.0195,-0.1875 -0.10742,-0.121094 -0.0547,-0.07422 0.008,-0.07617 -0.0156,-0.03711 -0.006,-0.05078 0.0859,-0.07617 0.0371,-0.06445 0.0644,-0.05078 z"
         id="path8367" />
      <path
         d="m 100.23438,47.726567 -0.300786,0.128907 -0.03516,-0.02344 -0.09766,0.07813 -0.326172,0.105469 0.002,1.347656 0.0039,0.917969 h 1.035148 1.69532 l 1.99804,-0.002 0.11914,-0.103516 0.17188,-0.02344 0.0996,0.01563 0.0801,-0.0332 0.14648,-0.0293 0.0996,-0.08789 0.22266,-0.126953 0.11328,-0.05078 -0.25,-0.246094 h -0.0508 l -0.0742,-0.175781 -0.082,-0.0039 -0.004,-0.164062 0.14063,-0.121094 -0.0937,-0.125 0.17578,-0.101562 0.125,-0.199219 0.15625,-0.07031 -0.043,-0.0625 -0.23828,-0.05078 -0.0898,-0.125 -0.0195,-0.199219 -0.0898,-0.07422 -0.0918,0.01172 -0.10742,-0.138671 -0.57422,-0.002 h -0.94336 -0.94336 l -0.96582,0.0029 -0.96582,0.0029 z"
         id="path8360" />
      <path
         d="m 99.476562,49.363286 -0.09766,0.01563 -0.05078,0.04687 0.08203,0.269531 -0.07422,0.07031 -0.07813,0.246094 -0.132812,0.214843 -0.0039,0.148438 -0.503906,0.28125 -0.08203,-0.07813 -0.101562,0.164063 -0.109375,-0.02344 -0.109375,0.109375 0.01953,0.242187 -0.152344,0.05078 v -0.08203 l -0.113281,-0.08594 -0.1875,0.230469 0.03125,0.210937 -0.101562,0.02344 -0.04688,0.140625 -0.265624,0.03516 0.0039,0.146484 -0.05859,0.08594 0.160156,0.185547 -0.0039,0.07422 0.199219,0.25 0.09766,0.02344 0.0625,0.08984 0.152344,0.0078 -0.0039,0.08594 0.04688,0.01172 0.07812,0.160156 0.08594,0.0078 0.09766,0.08203 0.167969,-0.02734 0.144531,-0.117188 0.144532,0.105469 0.359374,-0.101563 0.0039,-0.08594 0.08984,0.04297 0.25,-0.109375 0.02734,0.0625 0.273438,-0.199219 -0.109375,-0.05859 0.164062,-0.207031 0.238279,-0.203125 0.004,-0.101562 0.18359,-0.164063 0.082,-0.21875 0.0664,-0.0078 0.10547,0.125 0.1914,0.05078 0.29688,-0.441406 0.12891,0.09375 0.11328,-0.15625 0.16015,-0.05859 0.16797,-0.195313 v -0.07813 l 0.10547,-0.08984 -0.0195,-0.125 0.51563,0.335938 0.0937,-0.195312 -0.004,-0.06641 -0.13281,-0.152343 0.0352,-0.06641 -0.14062,0.02734 -0.10547,-0.101563 -0.10156,-0.0039 -0.0742,0.06641 -0.15235,-0.01172 -0.0312,0.109375 -0.18359,0.0039 -0.12109,-0.07031 -0.0195,-0.05859 -0.20313,0.203125 -0.11328,-0.04687 -0.26953,0.199219 -0.13672,0.09766 -0.0234,-0.132813 0.0273,-0.261719 v -0.132812 h -1.035151 l -0.0039,-0.917969 z"
         id="path8398" />
      <path
         id="path8401"
         d="m 65.27539,57.285161 0.13281,0.0078 0.11524,-0.128907 -0.0664,-0.189453 -0.17774,-0.0625 0.0293,-0.183593 -0.041,-0.128907 h 0.0664 l 0.14649,-0.292968 -0.0352,-0.228516 0.10351,-0.177734 0.28125,-0.158203 -0.0117,-0.09766 -0.19531,-0.09766 -0.11719,-0.251953 -0.16015,-0.171875 -0.006,-0.140625 -0.67969,-0.521484 -0.43555,-0.34375 -0.85742,-0.673829 -0.76562,-0.576171 -0.75391,-0.556641 -0.66016,-0.466797 -1.21289,-0.847656 v -0.75 -0.75 -0.75 -0.75 l -1.05273,-4.88e-4 -1.05274,-4.89e-4 -1.05273,-4.88e-4 -1.05273,-4.88e-4 0.006,0.0054 0.006,0.0054 0.006,0.0054 0.006,0.0054 0.004,0.0957 -0.0352,0.101563 0.082,0.06836 0.0449,0.09766 0.0449,0.160156 0.004,0.07617 -0.0723,0.228516 0.008,0.185547 -0.0664,0.148437 -0.0195,0.03125 -0.004,0.01563 0.0332,0.0039 -0.0176,0.02539 -0.0137,0.05078 -0.0312,-0.0078 0.01,-0.02539 -0.0117,-0.01172 -0.0293,0.0293 -0.041,0.113282 -0.0469,0.107422 0.0137,0.11914 0.0332,0.119141 0.21484,0.15625 0.22461,0.234375 0.0527,0.08594 0.0488,0.15625 0.006,0.103516 -0.043,0.148437 0.0996,0.25586 0.0195,0.205078 0.27539,0.230469 0.13672,0.140625 0.16797,0.08594 0.0742,0.144531 0.0605,0.02734 0.0781,0.08008 0.0312,0.07422 -0.10156,-0.103515 0.01,0.128906 -0.0332,0.07813 0.004,0.03125 0.0664,-0.06641 0.0586,0.0293 0.11328,0.08008 0.0781,0.04297 0.0977,0.0293 0.0625,0.04687 0.0547,-0.01172 -0.0273,-0.115234 0.01,-0.15625 0.0918,-0.03516 0.0547,0.0078 0.13086,0.06445 0.0527,0.0059 0.12304,-0.05664 0.0391,0.0039 0.0586,0.03125 0.0527,0.01367 0.13281,-0.0059 0.0664,0.0059 0.0547,-0.0098 0.10156,0.02734 -0.0469,0.0039 -0.0664,-0.0078 -0.0781,0.02734 -0.3711,-0.01758 -0.1289,0.0098 -0.0977,0.0332 -0.0703,0.04687 0.0195,0.03906 0.0332,0.02539 0.0352,0.107422 0.0742,0.05664 0.0645,0.105469 0.0352,0.08203 0.0254,0.02734 0.0273,0.03906 -0.0488,-0.0039 -0.0469,-0.01953 -0.0625,-0.0625 -0.0703,-0.02734 -0.0703,-0.06445 -0.0215,-0.08398 0.006,-0.04883 -0.0606,-0.0098 -0.0684,0.02734 0.0137,0.11914 0.002,0.109375 0.0898,0.169922 0.0137,0.166016 0.23047,0.216797 0.2832,0.05078 0.0742,0.08789 0.0117,0.05078 0.006,0.06836 -0.0469,0.07617 -0.084,0.08398 0.01,0.138672 0.0332,0.103516 0.21289,0.175781 0.19922,0.226563 0.0312,0.06445 0.0898,0.07031 0.0605,0.117188 0.14453,0.06836 0.11523,0.126953 0.12305,0.05469 0.041,0.06055 -0.0254,0.08984 0.0273,0.06445 0.15039,0.05273 0.0488,0.03711 0.0234,0.04492 -0.0273,0.126953 0.0371,0.136719 -0.0137,0.06445 0.0117,0.07813 -0.0176,0.08984 0.084,0.03516 0.0801,0.07227 0.084,0.01172 0.22656,-0.01562 0.11719,0.0078 0.19922,0.05664 0.14062,0.01172 0.10743,-0.01758 0.1914,0.07813 0.14649,0.08203 0.0312,0.09375 0.0918,0.05273 0.3125,0.08789 0.23242,-0.01172 0.0937,0.01758 0.11328,0.160156 -0.0176,0.113281 0.11523,0.03125 0.0312,-0.04687 0.10157,0.0078 0.082,0.0293 0.1289,0.103515 0.16211,0.08203 0.32227,0.242187 0.14844,0.195313 0.0547,0.160156 0.008,0.06641 -0.0156,0.06641 0.0293,0.142579 0.0586,-0.02344 0.0469,0.03906 0.006,0.109376 0.002,0.0059 0.28711,-0.02148 0.28515,-0.02148 0.28711,-0.02148 0.28516,-0.02148 0.28711,-0.02148 0.28711,-0.02148 0.28515,-0.02148 0.28516,-0.02148 z m -5.1582,-1.365234 -0.0352,0.01172 0.0254,0.03711 0.006,0.03711 0.0762,0.02539 0.24804,-0.03906 0.0137,-0.01953 -0.0195,-0.02539 -0.11132,0.02539 -0.20313,-0.05273 z m -0.48438,0.0078 -0.0449,0.01563 -0.0293,0.02344 0.082,0.01172 0.0527,-0.0039 -0.0469,-0.03516 -0.0137,-0.01172 z m 0.29492,0.04492 -0.17968,0.01367 0.084,0.0957 0.0547,0.01367 0.0684,-0.01563 0.0606,-0.05273 -0.01,-0.01172 -0.0781,-0.04297 z m 1.51758,0.550782 -0.0137,0.01172 0.006,0.02734 0.004,0.0059 0.0508,0.0039 0.0156,0.01563 0.0234,0.05469 0.0234,0.04102 0.0762,-0.0039 0.0723,0.0078 -0.0508,-0.07422 -0.0449,-0.02734 -0.16211,-0.0625 z m -0.9707,0.195312 -0.0488,0.0039 0.0293,0.05273 0.0625,0.0098 0.0449,-0.002 -0.004,-0.01563 -0.0371,-0.04297 -0.0469,-0.0059 z m 0.96875,0.248047 -0.0332,0.02148 0.0605,0.07617 0.0566,0.0957 0.0645,0.02148 0.0586,-0.0098 -0.0332,-0.02148 -0.125,-0.111329 -0.0488,-0.07227 z" />
      <path
         d="m 59.97461,47.996099 0.74023,-0.0039 h 0.74219 l 0.74414,-0.002 0.74414,-0.002 v -0.914062 -0.914063 l 0.10156,-0.191319 -0.0469,-0.05859 0.0859,-0.07813 -0.32422,-0.132812 -0.0117,-0.191407 0.1875,-0.265624 0.21094,-0.148438 v -0.148438 l 0.35937,-0.554687 -0.0937,-0.171875 -0.21875,-0.05469 -0.15625,-0.171874 h -1.02539 -1.02539 l -0.13672,0.07812 h -0.48437 l -0.63281,0.195313 -0.27344,0.03906 -0.125,-0.07813 -0.42188,0.140626 -0.13281,0.03125 -0.0547,-0.07813 -0.59375,-0.03906 -0.40625,0.164062 -0.54687,-0.101562 0.0156,-0.21875 -0.125,-0.21875 -0.20313,-0.07813 -0.0879,0.01758 -0.10156,0.0098 -0.0801,-0.0098 -0.0645,-0.05469 -0.0547,-0.01367 -0.15234,0.03906 -0.23829,0.002 -0.0508,-0.04297 -0.0254,0.0059 0.0137,0.04102 0.0273,0.03711 -0.0137,0.296875 0.0312,0.267578 -0.0332,0.09961 0.0137,0.07617 -0.10937,0.623047 0.0137,0.128906 -0.0195,0.128907 0.0176,0.09375 -0.0527,0.0918 -0.0312,0.277343 -0.0176,0.365235 -0.0352,0.03906 -0.0547,0.113282 -0.0488,0.128906 0.0547,-0.02539 0.0352,0.01172 -0.0781,0.05664 h -0.0449 l -0.0273,0.02539 -0.10547,0.330078 -0.0449,0.07422 -0.041,0.125 0.0957,0.142578 0.0371,0.08594 -0.0156,0.203125 0.0117,0.07617 0.0547,0.181641 0.11914,0.117188 h 1.05274 l 1.05273,0.002 h 1.05273 1.05274 z"
         id="path8407" />
      <path
         d="m 65.33984,54.982427 -0.006,-0.08789 0.0645,-0.04297 -0.0195,-0.171874 -0.0801,-0.199219 0.0176,-0.07227 -0.0469,-0.21875 0.0449,-0.06445 -0.0957,-0.214844 0.1836,-0.0625 0.19531,0.01172 0.12109,0.136719 0.11329,-0.0332 0.0234,-0.06055 0.0703,-0.09375 -0.002,-0.814453 -0.002,-0.753907 -0.004,-0.753906 -0.002,-0.751953 -0.002,-0.753906 0.0156,-0.0625 0.004,-0.958985 0.004,-0.960937 -0.74804,-0.002 -0.74805,-0.002 -0.74805,-0.002 -0.74804,-0.0039 -0.74414,0.002 -0.74414,0.002 h -0.74219 l -0.74024,0.0039 v 0.75 0.75 0.75 0.75 l 1.21289,0.847656 0.66016,0.466797 0.75391,0.556641 0.76562,0.576171 0.85742,0.673829 0.43555,0.34375 0.67969,0.521484 z"
         id="path8414" />
      <path
         d="m 65.9375,47.998052 0.74805,-0.002 0.74609,-0.002 0.74805,-0.002 0.74804,-0.002 -0.002,-0.61914 -0.002,-0.621094 -0.002,-0.619141 v -0.61914 l -0.17578,-0.09961 -0.0977,-0.15039 -0.12109,0.0059 -0.0703,0.08203 0.0527,0.09766 -0.23828,-0.01563 -0.11914,0.04687 -0.0508,-0.05469 -0.21289,0.0332 -0.14649,-0.0293 -0.12304,0.02734 -0.0547,0.08008 -0.29493,-0.04687 -0.082,0.01758 -0.0644,0.125 -0.13085,-0.06836 -0.10547,-0.167969 0.0352,-0.04102 -0.16797,-0.181641 -0.125,0.01563 -0.0723,-0.03516 -0.0781,-0.107422 0.0488,-0.0098 -0.0117,-0.08203 -0.23828,-0.228516 -0.082,-0.203125 -0.0449,-0.04687 0.0234,-0.0625 -0.10547,-0.04102 -0.0781,-0.08008 -0.1543,0.140625 -0.0977,0.01367 -0.10742,0.08984 -0.11914,-0.09961 h -0.0957 l -0.004,-0.06836 0.0449,-0.0625 -0.0547,-0.08398 0.0488,-0.05078 0.11523,-0.04297 -0.0195,-0.119141 -0.0625,-0.01367 0.0195,-0.0625 -0.0469,-0.08984 0.0684,-0.01758 0.0586,-0.246094 0.084,-0.214844 -0.0625,-0.05078 -0.11328,0.05859 -0.14844,-0.0332 0.008,-0.04492 -0.0664,-0.03125 -0.0996,0.0293 0.0176,-0.05273 -0.13281,-0.0625 -0.0293,-0.0957 -0.10742,-0.05664 -0.28125,-0.277344 -0.18359,-0.02734 -0.0781,-0.08594 -0.17383,-0.05273 0.0918,-0.06445 -0.0898,-0.05859 0.0254,-0.140625 -0.31446,-0.296875 v -1.011719 h -0.2207 -0.42578 -0.33594 l -0.002,0.41211 -0.004,0.71875 -0.004,0.71875 -0.004,0.71875 -0.0234,0.05664 0.12891,0.359376 0.15625,0.171874 0.21875,0.05469 0.0937,0.171875 -0.35938,0.554687 v 0.148438 l -0.21093,0.148438 -0.1875,0.265624 0.0117,0.191407 0.32422,0.132812 -0.0859,0.07813 0.0469,0.05859 -0.10156,0.191406 v 0.914063 0.914062 l 0.74805,0.0039 0.74805,0.002 0.74804,0.002 0.74805,0.002 z"
         id="path8417" />
      <path
         d="m 65.92383,52.994146 0.63086,-0.002 h 0.62304 0.625 0.625 0.625 0.62305 0.625 0.625 v -0.501954 l -0.002,-0.5 v -0.501953 -0.5 l -0.002,-0.501953 v -0.501953 l -0.002,-0.5 V 48.98238 l -0.49805,0.002 h -0.49804 -0.49805 l -0.49805,0.002 v -0.498047 -0.498047 l -0.74804,0.002 -0.74805,0.002 -0.74609,0.002 -0.74805,0.002 -0.004,0.960937 -0.004,0.958985 -0.0156,0.0625 0.002,0.753906 0.002,0.751953 0.004,0.753906 0.002,0.753907 z"
         id="path8421" />
      <path
         d="m 70.92187,58.67188 v -0.611328 l 0.002,-0.845703 v -0.84375 -0.845703 -0.84375 l 0.002,-0.845703 v -0.84375 h -0.625 -0.625 -0.62305 -0.625 -0.625 -0.625 -0.62305 l -0.63086,0.002 0.002,0.814453 -0.0703,0.09375 -0.0234,0.06055 -0.11328,0.0332 -0.12109,-0.136719 -0.19532,-0.01172 -0.18359,0.0625 0.0957,0.214844 -0.0449,0.06445 0.0469,0.21875 -0.0176,0.07227 0.0801,0.199219 0.0195,0.171874 -0.0645,0.04297 0.006,0.08789 0.006,0.140625 0.16016,0.171875 0.11719,0.251953 0.19531,0.09766 0.0117,0.09766 -0.28125,0.158203 -0.10352,0.177734 0.0352,0.228516 -0.14648,0.292968 h -0.0664 l 0.041,0.128907 -0.0293,0.183593 0.17773,0.0625 0.0664,0.189453 -0.11524,0.128907 -0.13281,-0.0078 -0.0625,0.150391 -0.0488,0.05664 0.47461,0.148437 0.47461,0.146484 0.47461,0.148438 0.47266,0.148437 0.47461,0.148438 0.47461,0.148437 0.47461,0.146485 0.47265,0.148437 h 0.35352 l 0.35351,-0.002 h 0.35352 0.35351 0.35352 l 0.19727,-0.002 z"
         id="path8426" />
      <path
         d="m 73.375,58.228521 0.0156,-0.171875 -0.0449,-0.0625 h 0.89062 0.89063 0.89062 0.89258 l 0.002,-0.5625 0.002,-0.560547 0.002,-0.5625 0.004,-0.5625 0.002,-0.560547 0.002,-0.5625 0.004,-0.5625 0.002,-0.5625 h 0.043 l 0.002,-0.505859 H 76.21929 75.46344 74.70758 73.95172 73.1939 72.43804 71.68219 70.92633 v 0.84375 l -0.002,0.845703 v 0.84375 0.845703 0.84375 l -0.002,0.845703 v 0.611328 h 0.15625 0.35351 0.35352 v -0.113281 l 0.002,-0.113282 v -0.113281 -0.111328 l 0.2207,0.002 h 0.2207 l 0.21875,0.002 h 0.22071 l 0.21875,0.002 0.2207,0.002 h 0.21875 0.0488 z"
         id="path8424" />
      <path
         d="m 70.91992,48.982427 0.0566,0.0098 h 0.61914 0.61719 0.61914 0.61914 0.61719 0.61914 0.61914 0.61719 l -0.002,-0.998047 -0.002,-1 -0.004,-0.998047 -0.002,-1 h -0.875 l -0.87305,-0.002 h -0.875 -0.875 l -0.875,-0.002 h -0.87305 -0.875 l -0.875,-0.002 0.004,0.521485 v 0.61914 l 0.002,0.619141 0.002,0.621094 0.002,0.61914 v 0.498047 0.498047 l 0.49805,-0.002 h 0.49805 0.49805 l 0.49804,-0.002 z"
         id="path8429" />
      <path
         d="m 75.95508,41.007817 -0.006,0.759766 -0.006,0.763672 -0.006,0.761719 -0.006,0.761719 0.93554,0.002 h 0.93555 l 0.93359,0.002 h 0.93555 l 0.935549,0.002 0.935547,0.002 h 0.933593 l 0.935547,0.002 -0.0293,-0.398437 -0.207031,-0.328125 0.04102,-0.246094 -0.06641,-0.08789 -0.0332,-0.613281 -0.191407,-0.380859 0.03711,-0.05078 -0.126953,-0.109375 v -0.425781 l 0.05078,-0.121094 -0.144531,-0.294922 H 82.470139 82.044358 81.616624 81.190842 80.765061 80.337327 79.91155 79.48381 79.05803 78.63225 78.20451 77.77873 77.35295 76.92717 76.50139 76.07365 75.95451 Z"
         id="path8432" />
      <path
         d="m 75.91406,44.996099 0.0176,-0.941406 0.006,-0.761719 0.006,-0.761719 0.006,-0.763672 0.006,-0.759766 H 75.64902 75.22324 74.79551 74.36972 73.94394 73.51621 73.09043 72.66269 72.23691 71.81113 71.38535 70.95761 70.53183 70.10605 69.68027 69.25254 68.82676 68.40097 67.97324 67.54746 67.11972 66.69394 66.26816 65.84238 65.41465 64.98886 64.56308 64.1373 63.93027 v 1.011719 l 0.31445,0.296875 -0.0254,0.140625 0.0899,0.05859 -0.0918,0.06445 0.17383,0.05273 0.0781,0.08594 0.1836,0.02734 0.28125,0.277344 0.10742,0.05664 0.0293,0.0957 0.13281,0.0625 -0.0176,0.05273 0.0996,-0.0293 0.0664,0.03125 -0.008,0.04492 0.14844,0.0332 0.11328,-0.05859 0.0625,0.05078 -0.084,0.214844 -0.0586,0.246094 -0.0684,0.01758 0.0469,0.08984 -0.0195,0.0625 0.0625,0.01367 0.0195,0.119141 -0.11523,0.04297 -0.0488,0.05078 0.0547,0.08398 -0.0449,0.0625 0.004,0.06836 h 0.0957 l 0.11914,0.09961 0.10742,-0.08984 0.0977,-0.01367 0.15429,-0.140625 0.0781,0.08008 0.10547,0.04102 -0.0234,0.0625 0.0449,0.04687 0.082,0.203125 0.23828,0.228516 0.0117,0.08203 -0.0488,0.0098 0.0781,0.107422 0.0723,0.03516 0.125,-0.01563 0.16796,0.181641 -0.0352,0.04102 0.10547,0.167969 0.13086,0.06836 0.0644,-0.125 0.082,-0.01758 0.29492,0.04687 0.0547,-0.08008 0.12305,-0.02734 0.14649,0.0293 0.21288,-0.0332 0.0508,0.05469 0.11914,-0.04687 0.23829,0.01563 -0.0527,-0.09766 0.0703,-0.08203 0.12109,-0.0059 0.0977,0.15039 0.17578,0.09961 -0.004,-0.521485 0.875,0.002 h 0.875 0.87305 l 0.875,0.002 h 0.875 0.875 l 0.87304,0.002 h 0.875 z"
         id="path8435" />
      <path
         d="m 75.91992,46.994146 h 0.69336 l 0.69531,0.002 h 0.69336 l 0.69336,0.002 h 0.69531 l 0.693364,0.002 h 0.695313 l 0.693359,0.002 0.210938,0.123047 0.324218,0.113281 0.101563,-0.101562 0.636719,-0.0039 0.02734,0.05273 0.503906,0.146484 0.08008,0.142578 0.15625,0.03125 -0.04883,-0.126953 -0.0918,-0.08203 -0.01563,-0.08594 0.15625,-0.28125 -0.02148,-0.164063 -0.08203,-0.0039 -0.02148,-0.0625 h 0.04883 l 0.01367,-0.0957 -0.07617,-0.109375 0.150391,-0.0039 0.002,-0.455078 0.002,-0.457031 0.002,-0.455078 0.002,-0.457031 -0.25,-0.08203 -0.175781,-0.189453 0.0293,-0.05078 0.269531,-0.15625 0.0059,-0.123047 -0.935547,-0.002 h -0.933593 l -0.935547,-0.002 -0.935544,-0.002 h -0.93555 l -0.93359,-0.002 h -0.93555 l -0.93555,-0.002 -0.0176,0.941406 0.002,1 0.004,0.998047 z"
         id="path8439" />
      <path
         d="m 75.92383,48.992193 1,0.002 h 0.99804 l 0.002,0.5 0.002,0.501953 0.84375,-0.002 0.84179,-0.002 h 0.841799 l 0.84375,-0.002 h 0.841797 l 0.84375,-0.002 h 0.841797 l 0.84375,-0.002 -0.31836,-0.320312 -0.04297,-0.177735 -0.09375,-0.03711 0.0059,-0.03711 -0.113281,-0.152343 0.07422,-0.15625 -0.08203,-0.253907 0.04687,-0.03906 -0.08594,-0.03125 0.0039,-0.222656 -0.179688,-0.109375 v -0.246094 l -0.07031,-0.09766 0.01953,-0.08594 -0.09766,-0.03125 -0.113281,-0.191406 0.02344,-0.07813 -0.08984,-0.07422 0.04297,-0.125 -0.08398,-0.01367 -0.15625,-0.03125 -0.08008,-0.142578 -0.503906,-0.146484 -0.02734,-0.05273 -0.636719,0.0039 -0.101563,0.101562 -0.324351,-0.113083 -0.210938,-0.123047 -0.693359,-0.002 h -0.695313 l -0.693364,-0.002 H 78.6953 l -0.69336,-0.002 h -0.69336 l -0.69531,-0.002 h -0.69336 l 0.002,1 0.002,0.998047 z"
         id="path8442" />
      <path
         d="m 77.92578,49.996099 0.004,0.751953 0.002,0.751953 0.002,0.751953 0.002,0.75 0.92969,-0.002 0.92773,-0.002 0.927737,-0.002 0.927735,-0.002 0.927734,-0.002 0.929687,-0.002 0.927735,-0.002 0.927734,-0.002 -0.01172,-0.33789 0.02344,-0.480469 0.0039,-0.673828 0.02148,-0.644532 -0.242188,-0.05664 -0.07227,-0.154297 -0.203125,-0.210938 0.242188,-0.175781 -0.08203,-0.150391 -0.171875,0.03906 -0.201172,-0.154297 -0.84375,0.002 h -0.841797 l -0.84375,0.002 h -0.841797 l -0.84375,0.002 H 79.61155 l -0.8418,0.002 -0.84375,0.002 z"
         id="path8450" />
      <path
         d="m 70.91992,48.982427 v 0.501953 l 0.002,0.5 v 0.501953 l 0.002,0.501953 v 0.5 0.501953 l 0.002,0.5 v 0.501954 h 0.75586 0.75586 0.75586 0.75781 0.75586 0.75586 0.75586 0.75586 l 0.96094,0.0098 -0.002,-0.75 -0.002,-0.751953 -0.002,-0.751953 -0.004,-0.751953 -0.002,-0.501953 -0.002,-0.5 h -0.99805 l -1,-0.002 H 75.30645 74.68731 74.06817 73.45099 72.83184 72.2127 71.59552 70.97637 l -0.0566,-0.0098 z"
         id="path8447" />
      <path
         d="m 76.97266,53.498052 h 0.7539 0.75196 l 0.7539,0.002 h 0.75391 v 0.478516 0.476562 0.478516 0.476562 l 0.105467,0.0059 0.208984,0.210937 0.326172,-0.06641 0.160156,0.115234 v 0.09961 l 0.746094,0.144531 0.08203,-0.06641 0.259766,0.0059 0.0059,0.121094 0.138672,0.0098 -0.0059,0.117188 0.115234,0.05469 0.199219,-0.148437 0.1875,0.08203 0.03906,0.105469 0.214843,-0.105469 0.06055,0.193359 0.07227,-0.0098 0.08398,-0.226563 0.08203,-0.01758 0.144532,0.121094 0.103515,-0.07031 0.34375,0.203124 0.04883,-0.05469 0.154297,-0.06641 0.205078,-0.06641 0.126953,0.04883 0.210938,-0.09766 0.07031,0.06641 h 0.199219 l 0.09375,-0.09961 0.359375,0.230469 0.353516,0.09961 0.01758,-0.435547 0.01758,-0.4375 0.01953,-0.435546 0.01758,-0.435547 -0.09375,-0.556641 -0.09375,-0.554687 -0.0059,-0.507813 -0.927734,0.002 -0.927735,0.002 -0.929687,0.002 -0.927734,0.002 -0.927735,0.002 -0.927735,0.002 -0.92773,0.002 -0.92969,0.002 -0.96094,-0.0098 -0.002,0.505859 z"
         id="path8453" />
      <path
         d="m 88.814453,56.980474 0.0918,-0.164063 -0.08594,-0.128906 0.04688,-0.15625 -0.08984,-0.08203 0.06641,-0.04687 -0.08594,-0.08984 0.183594,-0.113281 0.01563,-0.132813 -0.07422,-0.04687 0.214844,-0.05859 -0.06641,-0.08984 0.125,-0.144532 0.07031,-0.0039 -0.01172,-0.08984 0.183594,-0.04687 0.03125,-0.328126 0.105468,-0.0039 -0.01953,-0.06641 0.230469,-0.125 -0.06641,-0.07031 0.0078,-0.03906 0.234375,-0.09375 -0.03125,-0.179687 -0.07031,-0.09375 0.06641,-0.07031 0.07813,0.05078 0.167968,-0.214844 -0.105468,-0.04687 0.238281,-0.117188 -0.0625,-0.07813 h 0.144531 l -0.08594,-0.121094 h -0.628907 l 0.01953,-0.06641 0.273437,-0.210937 v -0.08203 l -0.15625,-0.132812 -1.285156,-0.0039 -1.285156,-0.0039 -0.916016,0.0039 -0.916015,0.002 0.09375,0.554687 0.09375,0.556641 -0.01758,0.435547 -0.01953,0.435546 -0.01758,0.4375 -0.01758,0.435547 0.130859,0.0957 0.308594,-0.04687 0.01953,0.566406 0.71875,0.0039 0.71875,0.0039 0.716797,0.0039 0.71875,0.0039 z"
         id="path8463" />
      <path
         d="m 90.261719,53.988286 0.03516,-0.07422 0.101563,-0.05078 -0.105469,-0.101562 0.148437,-0.02734 -0.07422,-0.07422 h 0.09766 l -0.01563,-0.128906 -0.01953,-0.101562 0.06641,-0.01953 0.02344,0.136719 0.05078,-0.05469 0.07422,-0.101563 0.117188,0.05078 0.109375,-0.199218 -0.01953,-0.05078 0.02344,-0.167968 -0.07227,-0.0039 -0.08398,-0.111328 0.01172,0.105469 -0.109375,-0.05078 -0.08984,-0.181641 -0.07227,-0.04883 0.111328,-0.105469 -0.105468,-0.160156 v -0.160156 l -0.142578,-0.04492 -0.01172,-0.07617 -0.181641,-0.09375 -0.06641,0.0332 -0.05469,-0.08984 -0.386718,-0.269531 v -0.117187 l 0.18164,-0.253907 -0.01758,-0.09961 0.105469,-0.136719 -0.326172,-0.132812 -0.148437,0.09961 -0.07227,-0.02344 -0.115234,-0.392578 -0.28125,-0.164062 -0.05078,-0.06641 -0.265625,-0.205078 -0.09375,-0.121094 0.02734,-0.08398 -0.07617,-0.109375 0.0098,-0.232422 0.05469,-0.103515 -0.296875,-0.238281 -0.939453,0.01563 -0.939453,0.01758 -1.078125,-0.002 -1.080078,-0.002 -0.0059,0.03711 0.09375,0.03711 0.04297,0.177735 0.31836,0.320312 0.201172,0.154297 0.171875,-0.03906 0.08203,0.150391 -0.242188,0.175781 0.203125,0.210938 0.07227,0.154297 0.242188,0.05664 -0.02148,0.644532 -0.0039,0.673828 -0.02344,0.480469 0.01172,0.33789 0.0059,0.507813 0.916015,-0.002 0.916016,-0.0039 1.285156,0.0039 1.285156,0.0039 0.15625,0.132812 v 0.08203 l -0.273437,0.210937 -0.01953,0.06641 h 0.628907 z"
         id="path8466" />
      <path
         d="m 88.552734,49.623052 0.06836,-0.01172 0.0098,-0.07813 -0.05469,-0.09375 0.314453,-0.132812 0.01172,-0.126953 0.148437,-0.121094 -0.04297,-0.19336 -0.117187,-0.105468 0.06055,-0.1875 0.359375,-0.02734 0.332031,-0.126953 0.02734,-0.144531 0.18164,-0.171876 -0.02734,-0.236328 -0.214844,-0.09375 -0.06641,-0.144531 -0.199219,-0.105469 0.01172,-0.03711 -0.06055,-0.132813 -0.371094,-0.105468 -0.105469,-0.365235 0.111329,-0.154297 -0.02148,-0.05469 -0.105469,-0.01758 -0.03516,-0.162109 H 88.11331 87.45706 86.802763 l -0.65625,-0.002 h -0.654296 -0.65625 -0.65625 -0.654297 l -0.150391,0.0039 0.07617,0.109375 -0.01367,0.0957 h -0.04883 l 0.02148,0.0625 0.08203,0.0039 0.02148,0.164063 -0.15625,0.28125 0.01563,0.08594 0.0918,0.08203 0.04883,0.126953 0.08398,0.01367 -0.04297,0.125 0.08984,0.07422 -0.02344,0.07813 0.113281,0.191406 0.09766,0.03125 -0.01953,0.08594 0.07031,0.09766 v 0.246094 l 0.179688,0.109375 -0.0039,0.222656 0.08594,0.03125 -0.04687,0.03906 0.08203,0.253907 -0.07422,0.15625 0.113281,0.152343 1.080078,0.002 1.078125,0.002 0.939453,-0.01758 0.939453,-0.01563 0.296875,0.238281 z"
         id="path8469" />
      <path
         d="m 101.42188,56.128911 -0.59766,-0.501953 -0.50391,-0.4375 -0.662107,-0.02148 h -0.458984 l 0.01172,-0.105469 -0.144532,-0.1875 -0.115234,0.07813 0.0059,-0.09961 -0.824219,-0.04492 -0.537109,-0.01953 -0.701172,0.205079 -0.02734,0.06445 -0.210938,0.140625 -0.01563,0.09766 0.171875,0.08984 0.167969,0.140625 0.125,-0.01953 0.136719,0.234376 0.02734,0.109374 0.125,0.101563 0.03906,0.09766 0.320312,0.199219 0.07422,0.152344 0.101563,0.01172 0.128906,0.132813 -0.02344,0.09766 0.167969,0.140625 0.03125,0.06641 0.238281,0.113282 0.121094,0.363281 -0.01172,0.04297 0.191407,0.132812 0.04297,0.140625 0.04687,0.01563 -0.03125,0.167969 0.0625,0.07031 0.234375,0.07422 -0.01172,-0.03906 0.0332,-0.04492 0.05859,-0.01367 0.0332,-0.01563 0.06445,-0.07422 -0.0078,-0.03125 -0.0332,-0.01953 -0.03125,-0.03125 -0.0332,-0.06445 -0.0039,-0.08398 0.09375,0.109374 0.02539,-0.01172 0.0059,-0.03125 0.03125,-0.01563 0.01953,0.07031 0.01953,0.03125 0.0293,0.0078 0.06445,-0.03711 0.02734,-0.02734 0.01172,-0.07227 -0.05469,-0.05078 -0.105469,-0.03711 0.0625,-0.02148 0.111328,0.01172 0.09766,0.01953 0.0957,-0.03516 0.03711,-0.03906 0.05078,-0.01758 0.05664,0.0039 0.101563,-0.0293 0.08007,-0.04883 0.0469,-0.06055 -0.0391,-0.08203 0.1289,0.02344 0.0703,-0.03711 0.11915,-0.08398 0.0273,-0.09375 0.0898,-0.02539 0.0781,-0.01563 0.14453,-0.0918 0.0469,-0.05078 -0.0527,-0.128906 0.0547,-0.08984 v 0.04102 l -0.0117,0.05078 0.0449,0.06836 0.0547,-0.162109 0.21875,-0.251953 0.0781,-0.06641 0.26368,-0.148438 z"
         id="path8493" />
      <path
         d="m 91.917969,53.312505 0.03906,0.117188 -0.01563,0.0625 -1.089844,-0.01172 -0.28125,0.01172 -0.05078,0.05469 -0.02344,-0.136719 -0.06641,0.01953 0.01953,0.101562 0.01563,0.128906 h -0.09766 l 0.07422,0.07422 -0.148437,0.02734 0.105469,0.101562 -0.101563,0.05078 -0.03516,0.07422 0.08594,0.121094 h -0.144531 l 0.0625,0.07813 -0.238281,0.117188 0.105468,0.04687 -0.167968,0.214844 -0.07813,-0.05078 -0.06641,0.07031 0.07031,0.09375 0.03125,0.179687 -0.234375,0.09375 -0.0078,0.03906 0.002,0.002 0.908203,0.002 h 1.203125 1.052734 1.537109 l 1.289063,-0.002 0.04102,-0.246094 0.25,-0.02148 0.02734,-0.144531 0.208985,-0.160156 0.28125,0.01172 0.419922,-0.226563 0.09961,0.02148 0.08984,-0.19336 0.109375,0.03906 0.105469,-0.148438 0.08789,0.02148 0.01172,0.08203 0.138672,-0.04297 0.126953,-0.126953 0.263672,0.02734 0.210937,-0.259766 0.121094,0.03906 0.04297,-0.25586 0.02734,-0.02734 -0.261719,-0.0078 -0.02734,0.02734 -0.757813,-0.0078 -0.601562,0.01563 -0.363281,-0.01172 -0.02344,0.01562 -0.886719,-0.01562 -0.53125,-0.02344 -0.753906,-0.0078 -0.4375,-0.01953 h -0.273437 l -0.01563,-0.01172 -1.261719,0.01953 v -0.03516 l -0.222656,-0.0078 z"
         id="path8498" />
      <path
         d="M 98.011719,52.457036 97.625,52.73438 l -0.347656,0.132813 -0.01563,0.08008 -0.117188,0.04492 -0.02734,0.09961 -0.203126,0.04883 -0.05078,0.09766 -0.386719,0.07813 -0.152343,0.08203 0.363281,0.01172 0.601562,-0.01563 0.757813,0.0078 0.02734,-0.02734 0.261719,0.0078 -0.02734,0.02734 h 0.242187 l 0.765625,0.03125 0.523438,0.01563 0.347657,0.0039 0.63281,-0.01172 0.46485,0.0039 0.39453,-0.01172 0.88672,-0.0039 0.69921,0.0078 0.375,-0.0078 0.39454,0.0039 0.004,-0.01172 -0.0117,-0.0293 0.008,-0.03906 0.0195,-0.01953 0.0273,0.02539 0.0234,0.06641 0.002,0.0078 0.0332,0.002 -0.0312,-0.09961 -0.0508,-0.109375 -0.0254,-0.0957 -0.0312,-0.05078 -0.14648,-0.01953 -0.0996,-0.02148 -0.15625,0.0625 -0.0879,-0.0059 -0.0176,-0.06445 -0.12891,-0.08594 -0.0371,-0.126953 -0.0937,-0.0098 -0.16016,-0.04102 -0.0762,-0.04687 -0.19336,-0.02539 -0.0312,-0.01172 -0.0254,-0.01953 0.24414,0.0098 0.30469,0.09961 0.0723,-0.0039 0.0293,0.08008 0.0937,0.07031 0.0449,0.04102 0.0625,0.04102 0.0625,-0.02344 0.0547,-0.03906 -0.0176,-0.05859 -0.0254,-0.03711 -0.0742,-0.06445 -0.0957,-0.0332 -0.11524,-0.07617 -0.12695,-0.126953 -0.0176,-0.0293 -0.002,-0.02734 0.2207,0.197265 0.084,0.03516 0.0605,-0.02734 -0.0117,-0.03125 0.004,-0.05469 0.13672,0.0293 0.01,-0.07422 -0.0156,-0.0625 -0.0977,-0.03516 0.0605,-0.04297 -0.17774,-0.05664 -0.0644,-0.04102 -0.0703,-0.08594 -0.0957,-0.05469 -0.13477,-0.128906 -0.0762,-0.09375 -0.18555,-0.132813 0.041,-0.002 0.13086,0.07227 0.11133,0.132812 0.0352,0.02539 0.30078,0.255859 0.0547,0.01172 0.0937,-0.0059 0.0371,-0.04687 0.0137,-0.07227 0.0312,-0.05273 -0.002,-0.04687 -0.0918,-0.06836 -0.11719,-0.04883 -0.0781,-0.08203 -0.0937,-0.04102 -0.26172,-0.0625 -0.14063,-0.160156 -0.0625,-0.01172 -0.12304,0.0293 -0.041,-0.01172 -0.041,-0.04492 0.0312,-0.132813 0.0234,-0.07031 0.0957,-0.07813 0.0723,-0.04297 0.0449,-0.05469 0.0176,-0.113281 -0.0723,-0.0098 -0.0234,-0.0625 -0.12109,-0.01953 0.008,-0.0625 -0.1836,-0.0078 -0.11328,-0.08594 0.0977,-0.07813 -0.12891,-0.08984 -0.16797,-0.01562 -0.0937,0.195312 -0.51563,-0.335938 0.0195,0.125 -0.10547,0.08984 v 0.07813 l -0.16797,0.195313 -0.16015,0.05859 -0.11328,0.15625 -0.12891,-0.09375 -0.29688,0.441406 -0.1914,-0.05078 -0.10547,-0.125 -0.0664,0.0078 -0.082,0.21875 -0.18359,0.164063 -0.004,0.101562 -0.23828,0.203125 -0.164062,0.207031 0.109375,0.05859 -0.273438,0.199219 -0.02734,-0.0625 -0.25,0.109375 -0.08984,-0.04297 -0.0039,0.08594 -0.359374,0.101563 -0.144532,-0.105469 -0.144531,0.117188 -0.167969,0.02734 -0.09766,-0.08203 -0.08594,-0.0078 -0.07812,-0.160156 -0.04688,-0.01172 0.0039,-0.08594 z"
         id="path8506" />
      <path
         d="m 89.355469,47.48438 0.703125,0.0039 0.705078,0.0039 0.703125,0.0039 0.705078,0.0039 0.05469,-0.265625 -0.109374,-0.21875 0.01562,-0.320313 0.132814,-0.445312 0.03906,-0.21875 0.09766,-0.21875 0.03906,-0.125 0.0625,-0.21875 0.101563,-0.125 0.07422,-0.144531 0.230468,-0.273438 0.01563,-0.125 0.07422,-0.03516 0.01172,-0.0625 -0.09375,-0.0078 -0.08203,0.136719 -0.07031,-0.01563 -0.109375,0.125 -0.109375,0.171875 -0.1875,0.03516 -0.117187,0.195312 -0.140626,0.03906 -0.05078,0.08203 -0.08984,-0.01953 -0.0039,-0.07031 0.199219,-0.316406 0.195312,-0.05078 0.04297,-0.167968 -0.07813,-0.0625 0.03906,-0.109375 -0.05078,-0.06641 -0.05469,0.05078 -0.140625,-0.01563 0.07813,-0.09766 0.01953,-0.21875 -0.07813,-0.08203 -0.230468,-0.01563 -0.01172,-0.152344 -0.386719,-0.08594 -0.328125,-0.0078 -0.179687,-0.09375 -0.335938,-0.08594 -0.765625,-0.132813 -0.08594,-0.140624 -0.234376,-0.101563 -0.304687,-0.109375 -0.21875,0.08594 0.07812,-0.148414 0.08594,-0.164062 -0.148438,-0.0625 -0.179688,0.101562 -0.09375,-0.0078 -0.171874,0.09375 -0.59375,0.101562 -0.125,-0.0625 -0.195313,0.09375 v 0.507812 l -0.01563,0.109376 -0.40625,0.125 -0.15625,0.210937 -0.0078,0.140625 0.125,0.0078 0.109374,0.132813 -0.109374,0.109375 -0.03906,0.570312 0.1875,0.132813 0.265625,0.05469 0.07813,0.117188 0.3125,0.07031 0.125,0.210938 0.242187,0.125 h 0.09375 l 0.21875,0.164062 0.04102,0.359376 0.03516,0.162109 0.105469,0.01758 0.02148,0.05469 -0.111329,0.154297 0.105469,0.365235 0.371094,0.105468 z"
         id="path8577" />
      <path
         d="m 90.875,53.023443 -0.02344,-0.148438 0.177735,-0.105469 0.46875,0.160157 0.07227,-0.08203 -0.08203,-0.126953 0.04883,-0.132812 0.08203,0.01172 0.304687,-0.08398 -0.09375,-0.169922 0.126953,-0.126953 -0.04492,-0.111328 0.08398,-0.126953 0.06055,-0.126953 -0.04492,-0.132813 0.117187,-0.0059 0.169922,-0.199219 0.05664,-0.148437 0.115234,-0.06641 0.01172,-0.236328 -0.150391,-0.216797 0.09375,-0.05469 -0.06055,-0.05078 0.02734,-0.07617 0.06641,-0.01758 -0.01563,-0.396485 0.01563,-0.376953 0.01172,-0.646484 -0.002,-0.962891 -0.132812,-0.191406 0.01562,-0.08203 -0.183593,-0.230469 0.0039,-0.261719 -0.705078,-0.0039 -0.703125,-0.0039 -0.705078,-0.0039 -0.703125,-0.0039 -0.01172,0.03711 0.199219,0.105469 0.06641,0.144531 0.214844,0.09375 0.02734,0.236328 -0.18164,0.171876 -0.02734,0.144531 -0.332031,0.126953 -0.359375,0.02734 -0.06055,0.1875 0.117187,0.105468 0.04297,0.19336 -0.148437,0.121094 -0.01172,0.126953 -0.314453,0.132812 0.05469,0.09375 -0.0098,0.07813 -0.06836,0.01172 -0.05469,0.103515 -0.0098,0.232422 0.07617,0.109375 -0.02734,0.08398 0.09375,0.121094 0.265625,0.205078 0.05078,0.06641 0.28125,0.164062 0.115234,0.392578 0.07227,0.02344 0.148437,-0.09961 0.326172,0.132812 -0.105469,0.136719 0.01758,0.09961 -0.18164,0.253907 v 0.117187 l 0.386718,0.269531 0.05469,0.08984 0.06641,-0.0332 0.181641,0.09375 0.01172,0.07617 0.142578,0.04492 v 0.160156 l 0.105468,0.160156 -0.111328,0.105469 0.07227,0.04883 0.08984,0.181641 0.109375,0.05078 -0.01172,-0.105469 0.08398,0.111328 0.07227,0.0039 z"
         id="path8591" />
      <path
         d="m 91.957031,52.218755 0.121094,-0.01172 -0.0059,-0.105469 0.226562,-0.0098 0.01758,0.07031 0.06641,-0.0332 -0.01758,-0.08203 0.210938,0.01172 0.335937,0.160156 0.02344,-0.09375 0.230469,-0.132812 0.177734,0.169921 0.115234,-0.08789 0.08398,-0.160157 0.109375,-0.109374 0.07227,0.136718 0.214844,0.07813 0.123047,-0.02148 0.0039,-0.144531 0.0957,-0.138672 0.142579,0.0059 0.06055,-0.160156 0.205078,-0.09961 -0.05469,-0.181641 0.208984,-0.02734 0.111329,0.06055 0.115234,-0.09375 0.232422,-0.01758 -0.111328,-0.248047 0.101562,-0.0625 -0.01367,-0.251953 0.01953,-0.197266 0.01953,-0.566406 -0.0059,-0.777344 -0.0078,-0.796875 v -0.06445 h -1.003906 -1.003907 l -0.332031,0.13086 -0.197265,0.01172 -0.179688,-0.113281 0.002,0.962891 -0.01172,0.646484 -0.01563,0.376953 0.01563,0.396485 -0.06641,0.01758 -0.02734,0.07617 0.06055,0.05078 -0.09375,0.05469 0.150391,0.216797 -0.01172,0.236328 -0.115234,0.06641 -0.05664,0.148437 -0.169922,0.199219 -0.117187,0.0059 0.04492,0.132813 -0.06055,0.126953 -0.08398,0.126953 0.04492,0.111328 z"
         id="path8595" />
      <path
         d="m 97.398438,51.593755 -0.105469,-0.132812 -0.148438,-0.03516 -0.03906,-0.167969 -0.128907,0.01172 -0.128906,0.101563 -0.128906,0.02344 -0.25,-0.101562 -0.183594,0.08594 -0.160156,-0.148437 -0.347656,-0.03516 -0.222656,-0.289062 -0.183594,0.03125 -0.113282,-0.08203 -0.08398,0.0332 v 0.002 l -0.101562,0.0625 0.111328,0.248047 -0.232422,0.01758 -0.115234,0.09375 -0.111329,-0.06055 -0.208984,0.02734 0.05469,0.181641 -0.205078,0.09961 -0.06055,0.160156 -0.142579,-0.0059 -0.0957,0.138672 -0.0039,0.144531 -0.123047,0.02148 -0.214844,-0.07813 -0.07227,-0.136718 -0.109375,0.109374 -0.08398,0.160157 -0.115234,0.08789 -0.177734,-0.169921 -0.230469,0.132812 -0.02344,0.09375 -0.335937,-0.160156 -0.210938,-0.01172 0.01758,0.08203 -0.06641,0.0332 -0.01758,-0.07031 -0.226562,0.0098 0.0059,0.105469 -0.121094,0.01172 -0.126953,0.126953 0.09375,0.169922 -0.304687,0.08398 -0.08203,-0.01172 -0.04883,0.132812 0.08203,0.126953 -0.07227,0.08203 -0.46875,-0.160157 -0.177735,0.105469 0.02344,0.148438 -0.02344,0.167968 0.01953,0.05078 -0.109375,0.199218 -0.117188,-0.05078 -0.07422,0.101563 0.28125,-0.01172 1.089844,0.01172 0.01563,-0.0625 -0.03906,-0.117188 0.222656,0.0078 v 0.03516 l 1.261719,-0.01953 0.01563,0.01172 h 0.273437 l 0.4375,0.01953 0.753906,0.0078 0.53125,0.02344 0.886719,0.01562 0.02344,-0.01562 0.152343,-0.08203 0.386719,-0.07813 0.05078,-0.09766 0.203126,-0.04883 0.02734,-0.09961 0.117188,-0.04492 0.01563,-0.08008 0.347656,-0.132813 0.386719,-0.277344 -0.152344,-0.0078 -0.0625,-0.08984 -0.09766,-0.02344 -0.199219,-0.25 0.0039,-0.07422 -0.160156,-0.185547 0.05859,-0.08594 -0.0039,-0.146484 z"
         id="path8598" />
      <path
         d="m 96.521484,48.259771 -0.667968,0.01953 -0.667969,0.02148 0.0078,0.796875 0.0059,0.777344 -0.01953,0.566406 -0.01953,0.197266 0.01367,0.25 0.08398,-0.0332 0.113282,0.08203 0.183594,-0.03125 0.222656,0.289062 0.347656,0.03516 0.160156,0.148437 0.183594,-0.08594 0.25,0.101562 0.128906,-0.02344 0.128906,-0.101563 0.128907,-0.01172 0.03906,0.167969 0.148438,0.03516 0.105469,0.132812 0.265624,-0.03516 0.04688,-0.140625 0.101562,-0.02344 -0.03125,-0.210937 0.1875,-0.230469 0.113281,0.08594 v 0.08203 l 0.152344,-0.05078 -0.01953,-0.242187 0.109375,-0.109375 0.109375,0.02344 0.101562,-0.164063 0.08203,0.07813 0.503906,-0.28125 0.0039,-0.148438 0.132812,-0.214843 0.07813,-0.246094 0.07422,-0.07031 -0.08203,-0.269531 0.05078,-0.04687 0.09766,-0.01563 -0.002,-1.347656 -0.361328,0.08984 -0.566406,0.207031 -0.167969,0.152344 -0.167968,0.04687 -0.234376,-0.03906 -0.472656,0.140625 -0.15625,-0.08984 -0.167968,0.0039 -0.08594,0.03906 -0.125,-0.02734 0.117188,-0.03516 0.21875,-0.01953 -0.09766,-0.03906 -0.03516,-0.05078 -0.06641,0.07031 -0.101563,-0.0078 -0.07422,-0.06641 -0.257813,-0.09375 -0.150391,-0.03711 z"
         id="path8601" />
      <path
         d="m 84.845703,40.630864 -0.0039,0.166016 -0.0039,0.210937 H 84.601574 84.175793 83.748059 83.322278 82.896496 82.7422 l 0.144531,0.294922 -0.05078,0.121094 v 0.425781 l 0.126953,0.109375 -0.03711,0.05078 0.191407,0.380859 0.0332,0.613281 0.06641,0.08789 -0.04102,0.246094 0.207031,0.328125 0.0293,0.398437 -0.0059,0.123047 -0.269531,0.15625 -0.0293,0.05078 0.175781,0.189453 0.25,0.08203 -0.002,0.457031 -0.002,0.455078 -0.002,0.457031 -0.002,0.455078 h 0.654297 0.65625 0.65625 0.654296 l 0.65625,0.002 h 0.654297 0.65625 0.654297 l -0.04102,-0.359376 -0.21875,-0.164062 h -0.09375 l -0.242187,-0.125 -0.125,-0.210938 -0.3125,-0.07031 -0.07813,-0.117188 -0.265625,-0.05469 -0.1875,-0.132813 0.03906,-0.570312 0.109374,-0.109375 -0.109374,-0.132813 -0.125,-0.0078 0.0078,-0.140625 0.15625,-0.210937 0.40625,-0.125 0.01563,-0.109376 v -0.507812 l 0.195313,-0.09375 0.0078,-0.07813 0.429688,-0.203125 0.804687,-0.570312 1.308844,-0.398484 -0.22461,-0.01563 -0.125,0.02148 -0.09375,-0.02148 -0.04492,-0.0625 -0.05273,-0.03906 -0.228515,0.01758 -0.28711,-0.01367 -0.136719,0.0078 -0.05273,-0.02539 -0.04297,-0.07031 -0.07617,-0.0078 -0.126953,0.01563 -0.177734,0.08789 -0.166016,0.04687 h -0.130859 l -0.128906,-0.04687 -0.210938,-0.0918 -0.148437,-0.105468 -0.166016,-0.03516 -0.126953,0.0098 -0.04883,0.05078 h -0.06641 l -0.04688,-0.08789 -0.04102,-0.07031 -0.08008,-0.0293 -0.150391,-0.06641 -0.105469,-0.03711 -0.158203,-0.04297 -0.05664,-0.0078 -0.101563,-0.0059 -0.103515,-0.0039 -0.121094,0.01172 -0.08594,0.05664 -0.09961,0.02344 -0.142578,0.01172 -0.09766,-0.02344 -0.04687,-0.05859 -0.203126,-0.05078 -0.359374,-0.04492 -0.207032,-0.03906 -0.05469,-0.03125 -0.0293,-0.03516 -0.0078,-0.05469 -0.08984,-0.140625 -0.04102,-0.115235 -0.01563,-0.140625 0.0059,-0.04492 -0.02148,-0.01367 -0.06445,-0.03125 -0.214844,-0.01953 z"
         id="path8208" />
      <path
         id="path8202"
         d="m 57.11523,42.724614 -0.0273,0.02148 0.004,0.02734 0.0312,0.04102 h 0.0137 l 0.01,-0.01953 0.004,-0.01172 -0.0352,-0.05859 z m 0.41602,-0.214843 -0.0176,0.002 -0.0215,0.06641 -0.002,0.06445 0.041,-0.0332 0.0117,0.0039 v 0.02734 l 0.0195,0.0039 0.0391,-0.01758 0.004,-0.02148 -0.0469,-0.05078 -0.0273,-0.04492 z m -0.082,-0.212891 -0.01,0.0059 -0.0137,0.0293 -0.002,0.04883 0.0176,0.02148 0.0547,0.02344 0.008,-0.02148 -0.0117,-0.08789 -0.01,-0.0078 -0.0332,-0.01172 z m 5.58984,1.695313 -0.1289,-0.359376 0.0234,-0.05664 0.004,-0.71875 0.004,-0.71875 0.004,-0.71875 0.002,-0.41211 H 62.85779 62.43005 62.00427 61.57654 61.15076 60.72497 60.29919 59.87146 59.44568 59.0199 58.59411 58.16638 57.7406 57.31482 57.2113 l 0.0664,0.138672 0.0371,0.05859 0.0332,0.03125 0.0527,-0.0039 0.0195,-0.01172 0.0176,0.002 0.0176,0.01563 0.0312,0.0918 -0.002,0.115234 0.0137,0.01758 0.006,0.03125 -0.0469,0.01758 -0.0859,-0.0098 -0.0273,0.0078 -0.0137,0.02539 0.008,0.01953 0.0234,0.01172 0.0566,0.0039 0.0391,0.01953 0.0547,0.03711 0.0801,0.07813 0.006,0.02539 -0.0644,0.0098 -0.0527,0.03125 -0.01,0.0293 0.0117,0.03906 0.0234,0.0293 0.0996,0.04687 0.008,-0.0059 -0.0391,-0.08594 0.01,-0.0078 0.0273,0.01758 0.0352,0.05273 0.0371,0.0332 0.0547,0.03711 0.0195,0.03125 -0.0762,0.07813 -0.0117,0.03516 -0.0625,0.07813 -0.01,0.03711 0.0195,0.03125 -0.002,0.03516 -0.0215,0.03906 -0.004,0.02539 0.0293,0.02344 0.0137,0.02539 -0.008,0.07617 0.0234,0.132813 -0.002,0.02344 -0.0664,0.05859 -0.0449,0.01563 -0.0469,0.002 -0.0312,0.01953 -0.0605,0.107422 -0.0234,0.02344 -0.0742,0.0332 h -0.0293 l -0.082,-0.03516 -0.10156,0.01563 -0.11328,-0.0078 0.0391,-0.03516 0.0332,-0.07031 0.0352,-0.04492 0.0918,-0.04883 0.0156,0.0098 0.0293,0.101563 0.0156,0.0078 0.0469,-0.08594 0.0137,-0.01172 0.0586,0.03516 0.0449,0.0059 0.0254,-0.01758 0.0234,-0.111328 -0.002,-0.05859 -0.0293,-0.06445 -0.0898,-0.08398 0.0117,-0.0059 0.0352,0.0098 0.0156,-0.0078 -0.0176,-0.07813 0.0137,-0.01953 0.0937,-0.05664 0.0117,-0.04687 -0.0215,-0.103516 -0.0527,-0.0078 -0.008,0.01172 0.006,0.06055 -0.0195,0.01953 -0.11133,0.07422 -0.0391,0.06055 -0.0566,0.04297 -0.0977,0.05078 -0.0703,0.04883 -0.0664,0.08008 -0.0117,0.02539 -0.006,0.05273 h 0.0488 l 0.0996,-0.01758 -0.004,0.0098 -0.10937,0.04883 -0.0723,0.01172 -0.0332,-0.0078 -0.002,-0.03125 0.008,-0.05078 0.0801,-0.115234 0.23047,-0.240235 0.0156,0.0098 0.002,0.04883 0.0254,-0.0039 0.1211,-0.142578 -0.0234,-0.05078 -0.0606,-0.08203 -0.0293,-0.0625 0.002,-0.04297 -0.0117,-0.01953 -0.082,0.04883 -0.0469,0.01367 -0.0664,0.0039 -0.0488,-0.0098 -0.0996,-0.06836 -0.0391,-0.0039 -0.0879,0.03125 -0.0449,0.0039 -0.68164,-0.04883 -0.12305,-0.03125 -0.0762,-0.04297 -0.25391,-0.05859 -0.20312,-0.07422 -0.0781,-0.0059 0.0312,0.0957 -0.0215,0.132812 0.0391,0.177735 0.041,0.07031 0.16016,0.121094 0.084,0.125 0.0684,0.253906 0.10937,0.195313 0.0273,0.121093 0.008,0.07227 0.0254,0.06055 0.0215,-0.04492 0.006,-0.03516 0.0684,0.0059 0.0566,0.04492 0.14258,0.02148 -0.26953,0.09961 0.041,0.11914 0.11523,0.03516 0.0684,0.04883 -0.0234,0.126953 -0.0332,0.09961 -0.0703,-0.08789 -0.0293,-0.08398 -0.006,0.115235 0.006,0.117187 -0.0273,0.09375 0.11133,-0.02148 0.0645,0.0332 0.20899,-0.0332 0.0371,0.0332 0.18554,-0.0039 0.0605,0.05078 0.10547,0.04883 0.0469,0.0039 0.0312,0.01367 0.0879,-0.01758 0.20313,0.07813 0.125,0.21875 -0.0156,0.21875 0.54687,0.101562 0.40625,-0.164062 0.59375,0.03906 0.0547,0.07813 0.13281,-0.03125 0.42188,-0.140626 0.125,0.07813 0.27344,-0.03906 0.63281,-0.195313 h 0.48437 l 0.13672,-0.07812 h 1.02539 1.02539 z m -5.9375,-2.703126 -0.0195,0.0039 -0.0586,0.02734 -0.0273,0.02734 0.0176,0.02539 0.0937,0.03125 0.006,-0.01563 -0.0156,-0.05273 0.0195,0.0039 0.0449,0.0332 0.0293,-0.0039 0.0391,-0.01953 -0.0117,-0.02344 -0.11718,-0.03711 z m -0.21484,0.09766 -0.0488,0.0078 -0.008,0.01758 0.0176,0.0625 0.0117,0.01758 0.0469,0.01953 0.10742,0.01953 -0.0273,-0.0332 -0.01,-0.03516 -0.0898,-0.07617 z m 0.22656,0.06055 -0.0254,0.01563 -0.0195,0.05273 0.01,0.02734 0.0312,0.02148 0.0527,0.01367 0.0176,-0.0098 0.006,-0.01953 -0.0469,-0.05078 -0.008,-0.04687 -0.0176,-0.0039 z m 0.25781,0.167968 -0.041,0.0332 -0.0547,0.07031 -0.0234,0.04297 0.006,0.01367 0.0527,0.05078 0.0332,0.01758 0.0332,0.0059 0.0176,0.02148 0.002,0.07422 0.0117,0.02539 0.0332,0.03711 0.0664,0.01172 0.0293,0.01563 0.0254,0.0332 0.0273,0.01367 0.0273,-0.0059 0.0156,-0.01563 v -0.04492 l -0.13671,-0.0957 -0.0195,0.05469 -0.0488,-0.130859 -0.0254,-0.04297 -0.0254,-0.01563 -0.0742,-0.01367 0.006,-0.01172 0.14843,-0.05469 0.008,-0.02539 -0.0371,-0.03906 -0.0312,-0.02148 -0.0254,-0.0039 z" />
      <path
         id="path8200"
         d="m 105.90039,49.341802 -0.0879,0.04297 -0.0488,0.0957 0.0488,-0.0039 0.0488,-0.01953 0.0586,-0.04297 0.0137,-0.0293 -0.002,-0.0332 -0.0312,-0.0098 z m 0.0859,-4.347656 -0.41602,0.002 h -0.23242 -0.0469 l -0.0527,0.0059 -0.0957,-0.0059 -0.13867,0.0332 -0.1836,0.07227 -0.2207,0.126954 -0.39258,0.27539 -0.0254,0.02734 -0.0586,0.05078 -0.24414,0.183594 -0.16016,0.0625 -0.0898,0.07422 0.0664,0.07031 0.10157,-0.05469 0.0742,0.02734 -0.0859,0.07813 0.15625,-0.02344 -0.15625,0.136719 -0.0234,-0.02734 -0.0664,0.02734 0.10157,0.117187 -0.0195,0.09375 0.0391,0.07813 -0.14063,0.06641 -0.082,-0.03906 -0.25391,0.132813 -0.0547,0.07031 -0.17969,0.01953 -0.0664,0.0625 -0.21094,-0.04297 -0.4414,0.03906 -0.16406,-0.08984 -0.35157,-0.04297 -0.30078,0.01172 -0.28906,0.03516 -0.33984,0.07422 -0.008,0.171875 0.0176,0.01758 0.0195,0.02539 0.004,0.04492 0.0137,0.02148 0.0312,0.01563 0.0352,0.01953 0.0234,0.02539 0.006,0.02148 0.0254,-0.0078 0.0195,0.128906 -0.17969,0.07422 -0.0937,0.148438 -0.125,0.01953 -0.24609,0.167969 -0.25,0.109374 -0.002,0.271485 0.96582,-0.0029 0.96582,-0.0029 h 0.94336 0.94336 l 0.57422,0.002 0.10742,0.138671 0.0918,-0.01172 0.0898,0.07422 0.0195,0.199219 0.0898,0.125 0.23828,0.05078 0.043,0.0625 0.78711,0.371094 -0.01,-0.140625 -0.0527,-0.113281 0.0449,0.03125 0.043,0.04687 0.0117,0.117187 -0.0352,0.142579 -0.043,0.07227 -0.0371,0.08789 0.0391,-0.02539 0.0371,-0.03906 0.0586,-0.01367 0.0723,-0.04883 0.10742,-0.08789 0.0391,-0.02344 -0.0937,-0.123047 0.23828,-0.109375 -0.0625,-0.08594 0.0312,-0.542968 0.0273,-0.203126 -0.008,-0.05469 0.0898,-0.289063 0.14454,-0.351562 -0.0273,-0.101562 0.0391,-0.414063 0.004,-0.265625 -0.0742,-0.101562 -0.11328,0.05469 0.0625,-0.191406 -0.0586,-0.28125 0.10937,-0.226563 0.0156,-0.242187 -0.0859,-0.07031 0.0469,-0.199218 -0.0391,-0.05469 0.0547,-0.08594 -0.0176,-0.07617 h -0.24805 z m 2.1582,3.669921 v -0.07812 l 0.0586,-0.01563 0.004,-0.160156 -0.008,-0.421875 0.004,-0.01563 -0.46484,-0.0039 -0.48828,-0.0078 -0.0156,0.02734 -0.0508,0.01172 -0.0117,-0.04297 -0.33204,-0.0078 -0.33203,-0.0039 -0.0273,0.203126 -0.0312,0.542968 0.0625,0.08594 -0.23828,0.109375 0.0937,0.123047 0.0508,-0.03125 0.40039,-0.154297 0.1582,-0.04102 0.0977,-0.06836 0.0781,0.01953 0.36914,-0.0098 0.10743,-0.03711 0.10547,0.01953 0.1914,-0.0332 0.14453,-0.01563 0.0742,0.0059 z m -0.41797,0.183594 -0.0996,0.02539 -0.17187,0.09961 -0.0801,0.03516 -0.20312,0.01953 -0.20508,0.0059 -0.0781,0.0098 -0.0742,0.02734 -0.0918,0.0059 -0.0957,-0.01953 -0.0332,0.002 -0.0352,0.01367 -0.0449,0.0078 h -0.0879 l -0.0352,0.01367 -0.0332,0.02539 -0.01,0.04297 -0.043,-0.03125 -0.0625,0.03516 -0.1211,0.04102 -0.0859,0.06836 -0.0391,0.04102 -0.0273,0.04492 0.0156,0.05859 0.0859,-0.01953 0.0547,-0.05273 0.0527,-0.0039 0.0234,0.01563 -0.002,0.01953 -0.0996,0.05078 0.13281,-0.02344 0.14649,-0.0059 0.35547,-0.06445 0.0371,0.01172 0.0352,-0.002 0.42969,-0.123047 0.0879,-0.01367 0.11914,-0.03516 0.12891,-0.04883 0.0879,-0.01953 0.4375,-0.166016 -0.10157,0.01563 -0.0977,0.0293 -0.0488,-0.03516 -0.0332,0.0039 -0.10352,0.02344 -0.12109,0.05078 -0.0527,0.03906 -0.0566,0.01953 -0.0625,-0.0078 0.0703,-0.06445 0.082,-0.05273 0.15429,-0.113282 z" />
      <path
         id="path8198"
         d="m 105.89258,50.253911 -0.14649,0.1875 0.002,0.0293 0.11914,-0.152344 0.0254,-0.06445 z m 0.19922,-1.25 -0.78711,-0.371094 -0.15625,0.07031 -0.125,0.199219 -0.17578,0.101562 0.0937,0.125 -0.14063,0.121094 0.004,0.164062 0.082,0.0039 0.0742,0.175781 h 0.0508 l 0.25,0.246094 -0.11328,0.05078 -0.22266,0.126953 -0.0293,0.05078 -0.0508,0.0625 -0.19922,0.03906 -0.0684,0.04102 -0.0508,0.07617 -0.0508,0.111329 0.004,0.07031 -0.004,0.04102 0.16992,0.15039 0.12305,0.05664 0.0937,0.07617 0.0859,-0.0039 0.0762,0.02344 0.0781,0.04297 -0.0234,0.09766 -0.0332,0.09766 0.0293,0.0078 0.12891,-0.06055 0.14844,-0.205078 0.041,-0.04102 0.002,-0.04492 0.0254,-0.02344 0.0605,-0.03125 0.043,0.0039 0.0449,-0.04297 0.0195,-0.06836 0.0195,-0.03125 -0.0156,-0.0625 0.0762,0.01367 0.0723,-0.07813 0.082,-0.113281 0.0586,-0.210938 0.0215,-0.03906 0.0312,-0.01563 -0.0195,0.164063 0.004,0.04102 0.0312,-0.136719 0.0215,-0.148438 0.0234,-0.09961 0.0312,-0.08008 0.0156,-0.07617 -0.0156,-0.07227 -0.0254,-0.05078 -0.0527,0.02148 -0.19141,-0.02539 -0.0215,-0.07422 0.0371,-0.07813 0.0391,-0.04102 0.0352,-0.02539 0.0371,-0.01367 0.0488,-0.0332 0.041,-0.03516 0.0977,-0.158203 0.0195,-0.08203 z" />
      <path
         d="m 102.97852,51.187505 0.11328,-0.08594 -0.13672,-0.101562 -0.0801,0.03906 0.0234,0.0625 0.0723,0.0098 0.008,0.07617 z"
         id="path8371" />
      <path
         d="m 104.20898,50.279302 -1.99804,0.002 h -1.69532 v 0.132812 l -0.0273,0.261719 0.0234,0.132813 0.13672,-0.09766 0.26953,-0.199219 0.11328,0.04687 0.20313,-0.203125 0.0195,0.05859 0.12109,0.07031 0.18359,-0.0039 0.0312,-0.109375 0.15235,0.01172 0.0742,-0.06641 0.10156,0.0039 0.10547,0.101563 0.14062,-0.02734 -0.0352,0.06641 0.13281,0.152343 0.004,0.06641 0.16797,0.01562 0.12891,0.08984 -0.0977,0.07813 0.11328,0.08594 0.1836,0.0078 -0.008,0.0625 0.12109,0.01953 0.0801,-0.03906 0.13672,0.101562 -0.11328,0.08594 0.004,0.03516 -0.0371,0.07227 -0.0801,0.05469 -0.0859,0.109375 -0.0215,0.04687 0.0117,0.08594 0.0762,0.01172 0.0801,-0.04492 0.0742,-0.0039 0.0137,0.05078 0.0391,0.04687 0.0586,0.05469 0.0234,-0.04492 v -0.05273 l 0.0977,0.126953 0.17578,0.03516 0.14063,0.05469 0.0508,0.04883 0.0606,0.03711 0.0117,-0.05273 -0.0332,-0.05664 -0.043,-0.07031 -0.23437,-0.185547 -0.0273,-0.08398 -0.008,-0.07422 0.0176,0.03125 0.0117,0.04102 0.0742,0.103515 0.0625,0.03125 0.0703,0.04297 0.0449,-0.0078 -0.0215,-0.05078 -0.0449,-0.05469 -0.043,-0.05664 -0.0352,-0.210938 0.0156,-0.04492 0.008,-0.05469 -0.006,-0.05664 0.0254,-0.04687 -0.0254,-0.05664 -0.0391,-0.0625 0.0117,-0.0039 0.0742,0.03711 0.0527,-0.04297 -0.008,-0.05273 -0.0606,-0.03125 -0.0859,-0.0957 0.004,-0.01563 0.14843,0.04492 0.0195,-0.0293 -0.004,-0.05078 0.0469,-0.01953 0.0137,-0.04102 -0.002,-0.02344 0.0176,-0.01563 0.0547,0.08203 0.0176,-0.0293 0.01,-0.08789 0.0254,0.01953 0.008,0.03906 0.0781,-0.02148 0.043,-0.03125 0.0176,-0.03711 -0.01,-0.05664 0.0234,-0.0332 0.0566,-0.0078 0.0469,-0.01758 -0.0117,0.08008 0.0976,-0.0059 -0.0391,0.04297 -0.043,0.0078 -0.0488,0.05078 0.0645,0.01172 0.0625,0.02148 -0.0996,0.0098 -0.0977,-0.002 -0.0781,0.05469 -0.084,0.123047 0.0195,0.126953 0.084,-0.05859 -0.002,0.04102 -0.0508,0.0918 -0.0586,-0.01953 h -0.0684 l -0.0176,0.05664 v 0.04492 l 0.0898,-0.03516 0.0488,0.02734 0.0234,0.0625 -0.0781,0.03125 -0.0547,0.0039 -0.041,0.107421 0.0332,-0.01172 0.0312,-0.04883 0.0644,0.01367 0.0371,0.05078 0.11914,0.08594 0.0391,-0.0039 0.0156,0.02344 h -0.11133 l -0.084,-0.01758 -0.0664,0.01953 -0.0312,0.105468 0.0293,0.05859 0.0527,0.07422 0.0977,0.04297 0.0644,0.03906 0.0312,-0.01563 0.0117,-0.02734 0.0215,-0.0098 0.0195,0.04102 0.0293,-0.01953 0.0488,-0.04492 0.0293,-0.0059 -0.0195,0.04297 0.0156,0.05664 -0.0215,0.04687 -0.0449,0.04492 0.0371,0.02344 0.0371,0.0059 0.0586,0.05273 -0.0332,0.05469 -0.0234,0.06055 0.11719,-0.002 0.0781,0.02148 -0.0625,0.132813 -0.0742,0.06445 -0.0957,0.136718 -0.084,0.220703 -0.0215,0.134766 0.01,0.05078 0.0527,0.06055 0.0801,-0.144531 0.041,-0.128906 0.043,-0.04687 0.0703,-0.04297 0.0664,-0.01953 0.0449,-0.02344 -0.01,-0.07227 0.24219,-0.433594 0.0605,-0.06445 0.0684,-0.113282 0.0645,-0.01367 0.0195,-0.04297 0.006,-0.08594 0.0176,-0.02148 0.0273,-0.01953 0.0176,0.01563 -0.002,0.04492 0.0234,-0.01758 0.0117,-0.04297 0.002,-0.02539 -0.65625,-0.0059 -0.0352,-0.402344 -0.0273,-0.4375 -0.0332,-0.423828 z m 0.69336,1.421875 -0.0391,0.05859 -0.0898,0.167968 -0.15235,0.201172 0.0469,-0.01758 0.12891,-0.183594 0.0664,-0.109375 0.0391,-0.117187 z"
         id="path8196" />
      <path
         id="path8186"
         d="m 103.32617,55.300786 0.0117,0.01367 0.0547,0.02148 0.0391,0.01172 0.0215,-0.002 -0.0742,-0.04102 -0.0527,-0.0039 z m 0.4668,-0.240234 -0.0488,0.02539 -0.18164,0.158203 -0.0918,0.123047 0.0254,-0.0098 0.14649,-0.16211 0.15039,-0.134765 z m 0.42578,-0.25 -0.084,0.01563 -0.11915,0.05078 0.0195,0.0039 0.18359,-0.07031 z m 0.27734,-0.580078 v 0.03516 l 0.0234,0.162109 -0.008,0.0918 -0.0469,0.201172 -0.15429,0.05664 0.0117,0.0098 0.13281,-0.02734 0.0352,-0.03906 0.0449,-0.169922 0.01,-0.115234 -0.0234,-0.152344 -0.0254,-0.05273 z m -0.21289,-0.175781 0.0664,0.109374 0.0137,-0.01953 v -0.02539 l -0.0117,-0.0293 -0.0684,-0.03516 z m -0.14258,-0.611329 -0.0332,-0.002 0.082,0.28711 0.082,0.167968 0.14844,0.232422 0.0469,0.05273 -0.0254,-0.06055 -0.19922,-0.34961 -0.10157,-0.328125 z m -5.832026,-0.0332 -0.04297,0.25586 -0.121094,-0.03906 -0.210937,0.259766 -0.263672,-0.02734 -0.126953,0.126953 -0.138672,0.04297 -0.01172,-0.08203 -0.08789,-0.02148 -0.105469,0.148438 -0.109375,-0.03906 -0.08984,0.19336 -0.09961,-0.02148 -0.419922,0.226563 -0.28125,-0.01172 -0.208985,0.160156 -0.02734,0.144531 -0.25,0.02148 -0.04102,0.246094 h 1.222656 l 0.701172,-0.205079 0.537109,0.01953 0.824219,0.04492 -0.0059,0.09961 0.115234,-0.07813 0.144532,0.1875 -0.01172,0.105469 h 0.458984 l 0.662109,0.02148 0.50391,0.4375 0.59766,0.501953 0.17187,-0.04492 0.39258,0.0059 0.043,-0.08008 0.0176,-0.177735 0.0273,0.09766 -0.008,0.08398 0.006,0.04883 0.0391,-0.111328 0.0273,-0.09766 0.10938,-0.136719 0.0547,-0.04687 0.0469,-0.02539 0.13281,-0.09375 0.13672,-0.07617 -0.0215,-0.02734 -0.01,-0.03711 v -0.138672 l 0.0273,0.03711 0.0273,0.07422 0.0605,0.01563 0.0449,-0.01172 0.11718,-0.0918 0.084,0.01172 0.1543,-0.0039 0.0996,-0.002 0.0645,-0.0039 0.0254,-0.04492 0.0898,-0.01758 0.0996,-0.0078 0.0781,-0.06641 0.0781,-0.0918 -0.0957,-0.05273 -0.28711,0.04687 -0.1543,-0.0293 -0.0762,-0.05469 -0.0957,-0.128907 0.20898,0.148438 0.082,0.01563 0.15039,-0.08203 0.0156,-0.03125 0.006,-0.04883 0.041,-0.0625 0.0527,-0.05469 -0.0391,-0.03711 -0.043,-0.02344 -0.37891,-0.126953 -0.0645,-0.07031 0.15234,0.06445 0.14649,0.03125 0.10546,-0.02148 0.0234,-0.07617 0.0352,-0.0039 0.0449,0.02344 0.0156,0.07227 0.0273,0.03906 0.041,-0.01172 0.0567,0.0078 0.11523,0.03125 0.10156,0.01563 0.0703,-0.02734 0.13672,-0.126953 0.19336,-0.138672 0.0293,-0.119141 -0.0156,-0.07813 -0.0117,-0.05664 -0.041,-0.05469 -0.041,-0.0078 -0.125,0.06445 -0.0234,0.173828 -0.0449,0.03125 h -0.0371 l 0.008,-0.0957 0.0156,-0.0918 -0.01,-0.0918 -0.13672,-0.01953 -0.0566,0.02344 -0.0937,0.01367 -0.14649,-0.002 -0.10742,0.01172 -0.11523,-0.01367 0.008,-0.07617 -0.0215,-0.09961 0.006,-0.0957 0.0156,0.08008 0.0391,0.07422 0.1211,0.05859 0.0801,-0.01172 0.0547,-0.04102 0.0391,-0.06641 0.0645,-0.0039 0.0937,0.02344 -0.0449,-0.07422 0.0488,0.02148 0.0723,0.02148 0.01,-0.06836 -0.008,-0.06445 0.0937,0.04492 0.10547,0.02539 0.0664,0.0332 0.0625,0.0625 -0.0469,-0.154297 -0.0586,-0.115234 -0.0527,-0.04688 -0.0137,-0.04492 0.0273,-0.08398 -0.39454,-0.0039 -0.375,0.0078 -0.69921,-0.0078 -0.88672,0.0039 -0.39453,0.01172 -0.46485,-0.0039 -0.63281,0.01172 -0.347658,-0.0039 -0.523438,-0.01563 -0.765625,-0.03125 h -0.242187 z" />
      <path
         id="path8184"
         d="m 98.580078,59.029302 -0.03125,0.02344 -0.0332,0.04883 0.002,0.08398 0.01953,0.08594 0.04297,-0.242187 z m 0.548828,-1.056641 -0.234375,-0.07422 -0.0625,-0.07031 0.03125,-0.167969 -0.04687,-0.01563 -0.04297,-0.140625 -0.191407,-0.132812 0.01172,-0.04297 -0.121094,-0.363281 -0.238281,-0.113282 -0.03125,-0.06641 -0.167969,-0.140625 0.02344,-0.09766 -0.128906,-0.132813 -0.101563,-0.01172 -0.07422,-0.152344 -0.320312,-0.199219 -0.03906,-0.09766 -0.125,-0.101563 -0.02734,-0.109374 -0.136719,-0.234376 -0.125,0.01953 -0.167969,-0.140625 -0.171875,-0.08984 0.01563,-0.09766 0.210938,-0.140625 0.02734,-0.06445 h -1.222656 l -1.289063,0.002 -0.0039,0.109375 0.140625,0.554687 0.128907,0.664063 0.128906,0.660156 0.07422,0.234375 0.05859,0.191406 0.109375,0.15625 -0.04297,0.117188 0.113282,0.03516 -0.167969,0.140625 0.0078,0.121094 -0.0625,0.179687 0.08594,0.308594 -0.07031,0.285156 0.101563,0.238282 0.132813,0.296874 0.982421,0.0332 1.652344,0.09961 0.05469,0.199219 0.154297,0.01563 0.01758,-0.208985 -0.03906,-0.166015 0.138672,-0.09375 0.181641,0.08789 0.238281,0.01758 -0.002,-0.002 -0.01172,-0.07422 -0.0039,-0.07227 0.01758,-0.03906 0.03125,-0.09375 0.01758,-0.08008 -0.0078,-0.03906 0.01953,-0.07227 0.0293,0.01953 0.04687,0.0078 0.07813,-0.0918 -0.04102,-0.05078 -0.05078,-0.01758 -0.002,-0.02148 0.08594,-0.01758 0.03711,-0.06445 0.03906,-0.03711 0.04297,-0.05859 -0.01953,-0.0078 -0.02734,0.01172 -0.03711,-0.01172 0.01758,-0.03516 0.07227,-0.03516 0.0039,-0.03711 -0.02148,-0.02148 -0.0098,-0.03516 0.03516,-0.04102 0.06445,-0.0098 0.03125,-0.0332 0.002,-0.02539 -0.03125,-0.0293 -0.01758,-0.03711 0.03125,-0.01563 0.03516,0.002 0.123047,-0.05273 0.05273,-0.08203 z" />
      <path
         id="path8182"
         d="m 91.890625,59.726567 -0.154297,0.01758 -0.05273,0.01563 0.02734,0.0078 0.130859,0.002 0.08789,-0.02148 -0.03906,-0.02148 z m 0.662109,-0.121093 0.05664,-0.04687 -0.07031,-0.07031 0.06641,-0.101562 -0.02344,-0.06641 -0.226562,-0.195312 0.02734,-0.132812 0.496094,-0.0078 h 0.515625 l 1.589844,0.0078 -0.101563,-0.238282 0.07031,-0.285156 -0.08594,-0.308594 0.0625,-0.179687 -0.0078,-0.121094 0.167969,-0.140625 -0.113282,-0.03516 0.04297,-0.117188 -0.109375,-0.15625 -0.05859,-0.191406 -0.07422,-0.234375 -0.128906,-0.660156 -0.128907,-0.664063 -0.140625,-0.554687 0.0039,-0.109375 h -1.537109 -1.052734 l 0.08594,0.101562 -0.04687,0.371094 -0.05469,0.578125 -0.117188,0.871094 -0.05469,0.40625 -0.08203,0.464843 -0.01563,0.273438 0.04297,0.726562 0.03906,0.841797 0.06055,-0.0039 0.101562,0.0098 0.113281,-0.0039 0.01758,-0.04687 0.03906,-0.152344 0.04687,-0.115235 0.01953,-0.01172 0.0625,0.06641 0.02539,0.06445 v 0.113281 l 0.02539,0.03516 0.04102,0.0078 0.04492,0.05859 0.02344,0.05469 -0.115235,0.0332 -0.08008,0.0059 -0.02148,0.02344 0.384765,-0.03516 0.107422,-0.101563 0.06641,-0.02734 z" />
      <path
         id="path8824"
         d="m 91.589844,59.630864 -0.03906,-0.841797 -0.04297,-0.726562 0.01563,-0.273438 0.08203,-0.464843 0.05469,-0.40625 0.117188,-0.871094 0.05469,-0.578125 0.04687,-0.371094 -0.08594,-0.101562 h -1.203125 l -0.908203,-0.002 0.06445,0.06836 -0.230469,0.125 0.01953,0.06641 -0.105468,0.0039 -0.03125,0.328126 -0.183594,0.04687 0.01172,0.08984 -0.07031,0.0039 -0.125,0.144532 0.06641,0.08984 -0.214844,0.05859 0.07422,0.04687 -0.01563,0.132813 -0.183594,0.113281 0.08594,0.08984 -0.06641,0.04687 0.08984,0.08203 -0.04688,0.15625 0.08594,0.128906 -0.0918,0.164063 0.09961,0.06055 -0.06641,0.199218 0.07031,0.04883 0.06055,0.232422 -0.115235,-0.0332 0.02734,0.06055 0.1875,0.132813 -0.103516,0.111328 -0.126953,-0.0332 -0.03906,0.07617 h 0.154297 l -0.115235,0.09961 0.04297,0.07227 -0.154297,0.132813 -0.08789,0.01563 -0.07813,0.287109 -0.109374,0.03906 0.05469,0.138672 -0.117187,-0.04492 0.08984,0.126953 -0.132812,0.04492 0.04297,0.248047 0.46289,0.002 0.462891,0.002 h 0.46289 l 0.462891,0.002 -0.04883,0.160156 -0.05664,0.111329 0.0332,0.154296 0.138672,0.121094 0.0957,0.285156 0.144532,-0.05664 0.123047,-0.123047 0.05664,0.002 0.03906,0.01172 0.169921,-0.03516 0.150391,-0.04687 0.03125,-0.002 0.05273,0.0098 0.128906,0.05078 0.28125,-0.01367 z m -0.3125,0.105469 0.0098,0.01953 0.05469,0.01758 0.08789,0.02148 0.01172,-0.01172 -0.01563,-0.01172 -0.148437,-0.03516 z m -0.462891,0.09375 -0.08984,0.05859 -0.01172,0.01758 -0.02344,0.01563 -0.03125,0.01563 0.07227,0.002 0.04883,0.02344 -0.0039,-0.04687 0.01367,-0.04297 0.02539,-0.04297 z" />
      <path
         id="path8172"
         d="m 88.074219,60.355474 -0.08203,0.03516 0.01172,0.03711 0.166016,0.08594 0.03516,-0.01563 0.0332,-0.03711 0.0078,-0.02734 -0.01367,-0.01953 -0.0293,-0.01172 -0.07813,-0.04297 -0.05078,-0.0039 z m 2.33789,-0.521485 -0.0957,-0.285156 -0.138672,-0.121094 -0.0332,-0.154296 0.05664,-0.111329 0.04882,-0.160156 -0.462891,-0.002 h -0.46289 l -0.462891,-0.002 -0.46289,-0.002 -0.04297,-0.248047 0.132812,-0.04492 -0.08984,-0.126953 0.117187,0.04492 -0.05469,-0.138672 0.109374,-0.03906 0.07813,-0.287109 0.08789,-0.01563 0.154297,-0.132813 -0.04297,-0.07227 0.115235,-0.09961 h -0.154297 l 0.03906,-0.07617 0.126953,0.0332 0.103516,-0.111328 -0.1875,-0.132813 -0.02734,-0.06055 0.115235,0.0332 -0.06055,-0.232422 -0.07031,-0.04883 0.06641,-0.199218 -0.09961,-0.06055 -0.71875,-0.0039 -0.716797,-0.0039 -0.71875,-0.0039 -0.71875,-0.0039 0.0078,0.398437 -0.01172,0.464844 -0.0039,0.15625 0.05469,0.02734 0.101563,0.113281 0.09766,0.207031 -0.01563,0.105469 0.07422,0.03125 0.191406,0.417969 -0.0039,0.179687 -0.06641,0.234375 -0.125,0.148438 0.03906,0.121093 -0.0625,0.08594 0.09766,0.101562 -0.111328,0.265626 0.02539,0.02539 -0.0039,0.03711 -0.03516,0.0625 -0.03906,0.0332 -0.03711,0.0078 0.01953,0.05469 0.03906,0.03125 0.06055,-0.0293 0.07031,-0.01563 0.30664,-0.0078 0.105469,-0.01172 0.107422,0.0098 0.224609,0.06445 0.160156,0.08008 0.119141,0.03711 0.410156,0.04102 0.177735,-0.03711 0.02539,-0.02344 -0.05469,-0.05078 -0.02148,-0.03125 0.05469,-0.0625 0.0625,-0.03906 0.125,-0.03516 0.06836,0.08398 0.152344,0.0059 0.107422,0.140625 0.05078,0.05078 0.183594,0.04102 0.05273,-0.04883 0.0293,-0.002 -0.01172,0.05859 0.01563,0.04883 0.08984,0.105469 0.0039,0.0332 -0.08789,-0.01172 -0.04492,0.0098 -0.0059,0.03125 0.285156,0.0957 0.251953,0.0625 0.07422,-0.01953 0.0918,-0.121093 0.08203,-0.0293 0.125,0.0059 0.07617,0.03906 0.05664,0.125 0.0332,0.02539 0.07617,-0.03125 0.03516,-0.04492 0.01953,-0.05859 0.0078,-0.05664 0.02148,-0.04102 v -0.09375 l -0.04883,-0.03125 -0.03906,-0.01758 -0.01953,-0.02344 0.002,-0.0332 0.28125,0.08008 0.05859,0.04102 0.02148,0.03516 0.0039,0.04883 0.07617,0.01953 0.04492,-0.0039 0.05273,0.01367 0.04297,0.03516 0.05469,0.01953 0.07813,0.05469 0.05469,0.08789 0.03516,0.03516 -0.02344,0.08984 0.04687,-0.01758 0.09375,-0.08203 0.04102,0.02539 0.03906,0.03711 0.02344,-0.0293 0.02344,-0.05273 0.08789,-0.04297 0.0059,-0.06055 -0.04883,-0.01563 -0.05273,-0.0293 -0.06445,-0.08789 -0.06445,0.0039 -0.267578,-0.08789 -0.06641,-0.06641 -0.0957,-0.05273 -0.04492,-0.08008 0.03125,-0.02734 0.0059,-0.0293 0.02148,-0.0078 0.04102,0.0098 0.0625,-0.02344 -0.0332,-0.02734 0.06055,-0.04687 0.07617,-0.01172 0.101562,-0.03711 -0.0098,-0.01953 0.0059,-0.08203 -0.04297,-0.05664 -0.01367,-0.0332 0.01367,-0.03516 -0.09375,-0.01172 -0.06836,0.05664 -0.02734,0.08789 -0.04297,0.0098 -0.111329,-0.02539 -0.07031,-0.07812 0.03711,-0.03906 0.0625,-0.03125 0.05078,-0.03906 -0.0039,-0.02734 -0.06836,-0.02734 -0.03711,0.03516 -0.03906,0.01367 -0.08203,-0.0039 -0.09961,0.06836 -0.18164,0.0293 -0.109375,-0.03516 -0.126953,-0.07617 0.08008,-0.136719 0.107422,-0.101562 0.09766,0.0098 0.08203,0.01758 0.0918,0.08203 0.365234,0.103515 z m 0.720703,0.109375 0.03906,0.128907 -0.02734,0.152343 0.0293,-0.0332 0.01367,-0.125 -0.01367,-0.06641 z m -0.0059,0.302735 -0.02734,0.02148 -0.04102,0.05273 -0.002,0.01953 0.05469,-0.05273 0.01563,-0.04102 z" />
      <path
         id="path8160"
         d="m 82.613281,62.802739 -0.01953,0.09766 0.0039,0.279297 0.134766,0.490234 0.08203,0.216797 0.01367,-0.04492 -0.0293,-0.142578 -0.15039,-0.5 -0.03516,-0.396485 z m 0.326172,-0.625 -0.07031,0.04297 -0.164063,0.255859 -0.08203,0.195313 -0.0078,0.08594 0.03125,-0.05859 0.101563,-0.240235 0.191406,-0.28125 z m 0.203125,-0.310546 -0.04102,0.01562 -0.08008,0.103516 -0.0098,0.0332 -0.04687,0.08203 0.02148,-0.0039 0.0918,-0.113281 0.08203,-0.07422 -0.01758,-0.04297 z m 0.453125,-0.25 -0.01563,0.0059 -0.0332,0.03516 -0.06641,0.0098 -0.16211,0.101562 -0.07422,0.0293 -0.04492,0.05273 0.03711,-0.0039 0.21875,-0.123047 0.132813,-0.0625 0.0078,-0.04492 z m 1.578125,-0.958985 -0.04492,0.05273 -0.21875,0.152343 0.05078,-0.0098 0.173828,-0.107422 0.09766,-0.08594 -0.05859,-0.002 z m 1.03125,-0.634765 0.111328,-0.265626 -0.09766,-0.101562 0.0625,-0.08594 -0.03906,-0.121093 0.125,-0.148438 0.06641,-0.234375 0.0039,-0.179687 -0.191406,-0.417969 -0.07422,-0.03125 0.01563,-0.105469 -0.09766,-0.207031 -0.101563,-0.113281 -0.05469,-0.02734 0.0039,-0.15625 0.01172,-0.464844 -0.0078,-0.398437 -0.01953,-0.566406 -0.308594,0.04687 -0.130859,-0.0957 -0.353516,-0.09961 -0.359375,-0.230469 -0.09375,0.09961 h -0.199219 l -0.07031,-0.06641 -0.210938,0.09766 -0.126953,-0.04883 -0.205078,0.06641 -0.154297,0.06641 -0.04883,0.05469 -0.34375,-0.203124 -0.103515,0.07031 -0.144532,-0.121094 -0.08203,0.01758 -0.08398,0.226563 -0.07227,0.0098 -0.06055,-0.193359 -0.214843,0.105469 -0.03906,-0.105469 -0.1875,-0.08203 -0.199219,0.148437 -0.115234,-0.05469 0.0059,-0.117188 -0.138672,-0.0098 -0.0059,-0.121094 -0.259766,-0.0059 -0.08203,0.06641 -0.746094,-0.144531 v -0.09961 l -0.160156,-0.115234 -0.326172,0.06641 -0.208984,-0.210937 -0.105471,-0.0059 v -0.476562 -0.478516 -0.476562 -0.478516 h -0.7539 l -0.75391,-0.002 h -0.75195 -0.75391 -0.043 l -0.002,0.5625 -0.004,0.5625 -0.002,0.5625 -0.002,0.560547 -0.004,0.5625 -0.002,0.5625 -0.002,0.560547 -0.002,0.5625 h -0.89258 -0.89062 -0.89063 -0.89062 l 0.0449,0.0625 -0.0156,0.171875 0.17187,0.002 0.008,0.002 0.01,0.0039 0.0879,0.08398 0.0918,0.134766 0.10742,0.09375 0.125,0.05273 0.21094,0.158204 0.29883,0.259765 0.23828,0.173828 0.17774,0.08594 0.11914,0.07422 0.0605,0.06445 0.082,0.134765 0.1543,0.3125 v 0.144532 l 0.0605,0.136718 0.11719,0.175782 0.10352,0.103515 0.0879,0.03125 0.0957,0.0625 0.10547,0.09375 0.1211,0.06445 0.13672,0.03125 0.18945,0.08398 0.24023,0.136719 0.16602,0.06836 0.0898,0.0039 0.0781,-0.04492 0.0664,-0.08984 0.0664,-0.05664 0.0644,-0.02734 0.0273,-0.04102 -0.0137,-0.05664 0.0449,-0.128906 0.0996,-0.201172 0.11914,-0.107422 0.13867,-0.01758 0.0898,-0.03711 0.043,-0.05859 0.0742,-0.0059 0.10742,0.04687 0.17188,0.02734 0.23828,0.01563 0.14063,-0.0059 0.043,-0.02148 h 0.0215 l 0.002,0.02539 0.0352,0.0098 0.0703,-0.0039 0.0586,0.03516 0.0762,0.107422 0.26562,0.173828 0.0234,0.06055 0.0918,0.08594 0.16797,0.130859 0.0977,0.115235 0.0215,0.0957 0.0859,0.152344 0.15234,0.207031 0.0664,0.109375 -0.0156,0.01758 0.0117,0.05859 0.0391,0.09961 0.0762,0.08594 0.10938,0.06836 0.10937,0.125 0.111332,0.18164 0.136719,0.136719 0.158203,0.09375 0.08984,0.08789 0.02148,0.08203 -0.002,0.06836 -0.02344,0.05859 0.0098,0.05469 0.04492,0.05078 0.01563,0.06445 -0.01758,0.08789 v 0.02539 l 0.01367,0.01953 0.140625,0.152343 0.07227,0.123047 0.05859,0.195313 v 0.002 l 0.06445,0.117187 0.0918,0.04883 0.142578,0.01758 0.107422,0.04102 0.07422,0.06445 0.09375,0.03711 0.111328,0.01367 0.107422,0.04297 0.103515,0.07031 0.19336,0.04687 0.28125,0.02148 0.21289,0.05859 0.148438,0.09375 0.0625,0.01953 h 0.01953 l 0.0078,-0.01367 0.0098,-0.02539 0.05859,-0.03125 0.134766,-0.01953 0.0059,-0.06836 -0.0098,-0.03516 -0.06445,-0.0039 -0.1875,-0.328125 -0.0332,-0.08984 -0.03125,-0.205078 -0.02734,-0.06836 -0.03125,-0.148437 -0.0293,-0.05859 0.03711,-0.08594 0.04102,-0.06445 0.002,-0.05664 -0.0098,-0.0625 -0.207031,-0.05078 -0.07617,-0.169922 0.08594,0.0625 0.158203,0.08008 0.04297,-0.002 0.04102,-0.01172 0.05859,-0.0918 0.0918,-0.251953 -0.142579,-0.166016 0.02734,-0.02148 0.03125,-0.0098 0.121094,0.01563 0.08008,-0.02734 0.09961,-0.105469 0.03906,-0.107422 -0.107422,0.0332 -0.01367,-0.04297 -0.002,-0.04102 0.06055,-0.01367 0.08008,-0.0039 0.04883,-0.02734 0.0332,-0.03516 0.01367,0.03906 0.02734,0.02734 0.05273,-0.03516 0.0332,-0.02734 0.01172,-0.09961 0.02148,-0.101563 0.09766,0.08008 0.113281,-0.02539 0.07422,-0.03906 0.06641,-0.05078 -0.05273,-0.02148 -0.05078,-0.0098 -0.115234,-0.220703 0.03125,-0.01367 0.0332,0.0059 0.01563,0.0332 0.03516,0.03516 0.07617,0.05469 0.07617,-0.03711 v -0.02539 l 0.09766,0.002 0.160157,0.0332 0.103515,-0.01172 -0.121093,0.07227 -0.101563,0.07227 0.05273,-0.01367 0.16211,-0.08594 0.166015,-0.05273 0.121094,-0.07227 0.07617,-0.03125 0.267578,-0.154297 0.115234,-0.06641 0.121094,-0.113281 0.01367,-0.08984 0.121094,-0.0918 0.128906,-0.111328 -0.04687,-0.08984 -0.05664,-0.07031 -0.03125,-0.169922 0.04102,-0.01172 0.05273,0.0332 0.03906,0.002 0.05859,-0.07617 0.08984,0.0039 0.01758,0.0957 -0.05273,0.105469 0.04492,0.01367 0.126953,-0.0332 0.08008,0.01953 -0.224609,0.130859 -0.0098,0.0332 0.185547,-0.09961 0.47461,-0.185547 0.208984,-0.01953 0.0039,-0.0332 -0.05859,-0.0918 0.103515,-0.166016 0.04687,0.0039 z" />
      <path
         id="path7873"
         d="m 99.742188,64.652349 -0.02148,0.0059 -0.07227,0.04492 -0.0039,0.0625 -0.04883,0.05469 -0.05078,0.03125 -0.02539,0.04688 -0.07813,0.09961 -0.02148,0.04883 0.197266,-0.189453 0.125,-0.205078 z m -0.179688,-2.503906 0.06055,0.208984 0.115234,0.265625 0.08984,0.171875 -0.01563,-0.07227 -0.167969,-0.402344 -0.04102,-0.115234 -0.04102,-0.05664 z m -4.298828,-1.88086 -0.07617,0.01367 -0.06445,0.03906 -0.125,0.05273 -0.04687,-0.01172 -0.06836,0.0059 0.109376,0.02539 0.09961,-0.03516 0.171875,-0.08984 z m 3.234375,-0.99414 -0.238281,-0.01758 -0.181641,-0.08789 -0.138672,0.09375 0.03906,0.166015 -0.01758,0.208985 -0.154297,-0.01563 -0.05469,-0.199219 -1.652344,-0.09961 -0.982421,-0.0332 -0.132813,-0.296874 -1.589844,-0.0078 h -0.515625 l -0.496094,0.0078 -0.02734,0.132812 0.226562,0.195312 0.02344,0.06641 -0.06641,0.101562 0.07031,0.07031 -0.05664,0.04687 0.0039,0.03125 -0.05859,0.05469 0.02539,0.01367 0.195312,-0.04492 0.0293,-0.05664 0.06641,-0.05664 0.01367,-0.08594 h 0.05273 l 0.04687,0.03906 0.03906,-0.05469 0.03516,-0.01562 0.0332,0.06836 -0.02148,0.07031 -0.136719,0.03516 -0.04102,0.02344 -0.03711,0.0332 0.232422,-0.03125 0.289062,-0.03125 0.07422,-0.02344 0.08203,-0.04102 0.07617,-0.0293 0.07422,0.01367 0.115235,-0.0098 0.0918,0.02734 0.02734,0.02344 0.01563,0.03516 -0.117187,-0.02344 -0.212891,0.03125 0.277344,0.06641 0.320312,0.117187 0.06445,0.04297 0.03516,0.0039 0.01367,-0.0332 0.002,-0.04297 0.06445,-0.03516 0.07227,-0.0078 -0.03711,0.05078 -0.02148,0.04687 0.05273,0.04102 -0.01367,0.03125 -0.05273,-0.0039 0.171875,0.144532 0.15039,0.09961 0.04687,0.07813 -0.0078,0.04102 -0.02148,0.01758 -0.04687,-0.04492 -0.03125,-0.05664 v 0.07422 l 0.03711,0.07227 0.05859,0.01562 0.132812,-0.02734 0.15625,-0.01367 0.06055,-0.02344 0.08008,-0.0332 0.08789,0.0039 0.25,-0.125 0.09766,-0.01172 0.07031,0.0039 0.02344,-0.02344 -0.01563,-0.05273 0.01953,-0.04687 0.04492,-0.03516 0.265625,-0.03906 0.351563,0.177735 0.404297,0.474609 0.519531,0.398438 0.11914,0.166015 0.0059,0.07422 -0.0059,0.04297 -0.0098,0.283203 -0.08789,0.25 -0.0957,0.390625 0.03516,0.06836 0.0332,0.04297 0.0332,0.02539 0.02734,-0.02344 0.05469,0.01367 0.0332,-0.02734 0.01563,-0.03125 0.01367,-0.0957 -0.03711,-0.02539 -0.04102,-0.06641 0.03906,-0.01563 0.05664,0.02344 0.05859,0.07813 0.02344,0.01172 0.05273,-0.03516 0.03906,0.03906 0.0059,0.02734 -0.03125,0.06445 -0.08984,0.09375 -0.115235,0.152343 -0.05078,0.0098 -0.02734,0.01563 0.06055,0.05078 0.03516,0.04883 0.177735,0.339844 0.08789,0.125 0.06445,0.06445 0.04687,0.02148 0.06055,0.0098 0.01172,-0.0332 -0.01172,-0.06445 0.08594,-0.02539 h 0.08203 l -0.05273,0.07031 -0.01172,0.189453 0.03906,0.150391 0.0332,0.01367 0.03516,-0.01367 0.04883,-0.07813 0.03906,-0.0332 0.05469,-0.02344 -0.06836,0.08984 -0.0625,0.107422 0.02734,0.02344 0.06445,0.03125 0.05664,0.289063 0.0957,0.164062 0.146485,0.08984 0.203125,0.0625 0.01953,0.09766 0.119141,0.150391 0.113281,0.214843 0.05664,0.0293 0.07617,0.02539 0.04102,0.04883 -0.02539,0.03906 -0.132812,-0.09375 -0.03906,0.0078 -0.02148,0.04102 -0.0098,0.04102 0.05859,0.08984 0.09766,0.0059 0.150391,-0.04297 0.125,0.01953 0.177734,-0.07617 0.07422,0.0039 0.117187,-0.09961 0.03906,-0.09766 0.02734,-0.191407 0.08203,-0.123046 0.06055,-0.136719 0.01563,0.0078 0.0059,0.0293 0.0098,0.0098 0.01563,-0.298828 0.07031,-0.435547 -0.0098,-0.240235 -0.03906,-0.185546 -0.03711,-0.08789 -0.09961,-0.125 -0.423829,-0.974609 -0.03516,-0.08789 -0.0625,-0.109375 -0.03906,-0.179688 -0.03125,-0.07617 -0.01953,-0.121094 0.0293,-0.0039 0.03711,0.02734 -0.0078,0.04883 0.01367,0.05078 0.06641,0.03125 0.01172,0.02344 -0.04102,0.0625 -0.0039,0.05273 0.03906,0.117187 0.0293,-0.0293 0.0098,-0.07617 0.02148,-0.06641 0.02539,-0.0078 -0.01563,0.203125 0.01367,0.142578 0.109375,0.24414 0.04297,0.03125 -0.07617,-0.169921 -0.03906,-0.111329 -0.01367,-0.08789 0.0059,-0.09375 0.01172,-0.0625 0.04492,-0.06055 -0.04102,-0.07031 -0.335938,-0.49414 -0.205078,-0.40625 -0.144531,-0.337891 -0.08789,-0.345703 -0.04883,-0.128906 -0.07031,-0.371094 -0.04492,-0.08594 z m -0.667969,4.02539 0.0332,0.109375 0.05078,0.09766 0.002,-0.05859 -0.03711,-0.113282 -0.04883,-0.03516 z m -0.03125,0.152344 0.01758,0.06836 0.03906,0.0332 0.07227,0.01953 0.03516,-0.02539 -0.07813,-0.0078 -0.02344,-0.01562 -0.0625,-0.07227 z m 1.574219,1.607422 -0.03711,0.04297 0.02539,-0.0039 0.02344,-0.03516 -0.01172,-0.0039 z m -0.171875,0.0957 -0.04102,0.02734 -0.0078,0.01367 h 0.01953 l 0.04102,-0.01562 0.002,-0.01563 -0.01367,-0.0098 z m -0.13086,0.08594 -0.15625,0.02539 -0.05078,0.02344 0.04687,0.01758 0.04492,-0.02344 0.05664,-0.01172 0.05859,-0.03125 z m -0.490234,0.0098 -0.002,0.01758 0.04297,0.06641 v 0.0293 l 0.01367,0.0059 0.0293,-0.01953 0.01563,-0.01758 -0.002,-0.01758 -0.09766,-0.06445 z m -0.142578,0.06055 -0.01563,0.06055 -0.05273,0.03906 0.06445,-0.0098 0.03516,-0.01367 v -0.0293 l -0.03125,-0.04687 z m -0.205078,0.113281 -0.04297,0.01758 0.002,0.01563 0.02539,-0.002 0.04297,-0.0098 0.002,-0.01953 -0.0293,-0.002 z" />
      <path
         id="path8633"
         d="m 96.494226,44.058601 -0.0098,-0.05078 -0.128906,-0.128906 h -0.002 l -0.09961,0.03125 0.05859,0.03906 -0.210938,0.03516 0.08984,0.08203 0.125,-0.02344 0.144532,0.0625 0.0332,-0.04687 z m -4.974695,-2.253908 -0.734375,0.257812 -0.0039,0.0625 0.05469,0.05078 0.21875,-0.05859 -0.07422,-0.03516 0.398437,-0.136719 z m 3.722657,2.390624 -0.203126,0.07031 -0.15625,0.132813 0.01563,0.132812 0.21875,0.08594 -0.359376,0.01562 -0.148437,0.140626 -0.0625,0.289062 -0.109375,0.1875 0.04687,-0.210938 -0.15625,0.15625 0.140625,-0.421874 -0.117188,0.0078 -0.210937,0.289062 -0.07031,-0.04687 -0.171874,0.07031 0.02344,0.15625 -0.195313,0.03906 0.04688,0.132813 -0.07813,0.273437 -0.242187,0.25 0.08594,0.08594 0.03125,0.203125 -0.117187,0.05469 v 0.09375 l 0.320313,0.695313 -0.05469,0.5 -0.234375,0.296875 -0.109375,0.21875 -0.197266,0.142578 h 1.003907 1.003906 v 0.06445 l 0.667969,-0.02148 0.667968,-0.01953 0.158204,-0.181641 0.117187,-0.07031 0.05469,-0.06641 h 0.002 l -0.0039,-0.08398 0.04102,-0.109375 0.03711,-0.04883 0.197266,-0.117188 -0.03125,-0.113281 0.128906,-0.06641 -0.04297,-0.0625 0.164062,-0.03516 0.01172,0.136718 0.09961,-0.06641 0.05664,-0.115234 0.07031,-0.277344 -0.09375,-0.166016 -0.140625,-0.65625 -0.15625,-0.199218 -0.207031,-0.02734 -0.05078,0.05469 -0.1875,0.01953 -0.09375,0.08984 -0.320315,0.304691 -0.277343,-0.113282 v -0.179687 l 0.08594,-0.105469 0.152344,-0.0078 0.101562,-0.0625 0.0625,-0.203125 0.195313,-0.05859 0.0625,-0.375 -0.06641,-0.179687 -0.125,-0.128907 0.04687,-0.07422 0.117188,0.0625 0.0039,-0.128906 -0.08203,-0.05469 0.0039,-0.07031 L 96.5,44.65235 96.089844,44.503912 95.890625,44.492192 95.75,44.351566 95.53125,44.328126 Z m -2.847657,0.644532 0.15625,-0.140625 0.253907,-0.371094 0.07422,-0.01172 0.07422,-0.152344 0.05469,-0.08594 -0.0039,0.210937 h 0.140625 l 0.05469,-0.152343 0.125,0.02344 0.117187,-0.05078 v 0.101563 l -0.0625,-0.0078 -0.07813,0.109375 0.0625,0.08984 0.101563,-0.140625 0.171875,-0.07813 0.0625,-0.140625 0.335937,0.0078 0.277344,-0.03125 0.144531,-0.132812 0.5,0.07422 0.140625,0.128906 0.171875,0.04687 -0.0078,-0.09766 0.08203,-0.09375 0.125,0.06641 0.101562,-0.02344 0.421876,0.04297 0.109374,-0.01953 -0.214843,-0.195313 -0.121094,0.0078 -0.02734,-0.02344 0.05859,-0.0625 -0.0625,-0.199219 -0.105469,-0.03516 -0.183594,0.08203 -0.125,-0.08594 -0.07812,0.03906 -0.183594,-0.02734 -0.105469,-0.02734 0.01172,-0.175781 0.07422,-0.08984 -0.300781,0.0078 -0.21875,0.09375 -0.359375,-0.03906 -0.214844,0.04687 -0.101562,-0.01953 -0.394531,0.160156 -0.09766,0.09375 -0.125,-0.07031 -0.09766,0.0625 -0.140625,-0.113282 -0.222656,0.0625 -0.152344,-0.02344 -0.01563,-0.07422 -0.21875,-0.203125 -0.25,-0.132813 -0.265625,0.0039 -0.152343,0.07422 0.144531,-0.128907 -0.207031,0.08203 -0.128907,0.117188 -0.0039,-0.07422 0.03906,-0.128906 0.125,-0.136719 0.08203,-0.0039 -0.002,-0.08203 0.253906,-0.132813 -0.06445,-0.05469 0.332031,-0.01563 -0.05469,-0.05469 -0.289062,-0.03125 -0.34375,0.09375 -0.109375,0.121094 -0.136719,0.04687 -0.25,0.101563 -0.07031,0.128906 -0.160156,-0.0078 -0.273438,0.164063 -0.425781,0.01172 -0.140625,0.128907 -0.367188,0.07031 -0.08984,0.05859 0.234376,0.101563 0.08594,0.140624 0.765625,0.132813 0.335938,0.08594 0.179687,0.09375 0.328125,0.0078 0.386719,0.08594 0.01172,0.152344 0.230468,0.01563 0.07813,0.08203 -0.01953,0.21875 -0.07813,0.09766 0.140625,0.01563 0.05469,-0.05078 0.05078,0.06641 -0.03906,0.109375 0.07813,0.0625 z" />
    </g>
  </g>
</svg>
